<svg width="550" height="300" viewBox="0 0 550 300" fill="none" xmlns="http://www.w3.org/2000/svg">
<mask id="path-1-outside-1_83_293" maskUnits="userSpaceOnUse" x="6" y="12" width="544" height="278" fill="black">
<rect fill="white" x="6" y="12" width="544" height="278"/>
<path d="M248.886 107.909C243.917 107.909 239.341 106.606 235.159 104C231.008 101.394 227.674 97.4394 225.159 92.1364C222.674 86.8333 221.432 80.1515 221.432 72.0909C221.432 63.6667 222.735 56.8182 225.341 51.5455C227.977 46.2727 231.371 42.4091 235.523 39.9545C239.705 37.5 244.098 36.2727 248.705 36.2727C252.159 36.2727 255.189 36.8788 257.795 38.0909C260.402 39.2727 262.583 40.8636 264.341 42.8636C266.098 44.8333 267.432 47 268.341 49.3636H268.705V13.9091H293.795V107H268.886V95.5455H268.341C267.371 97.9091 265.977 100.03 264.159 101.909C262.371 103.758 260.189 105.227 257.614 106.318C255.068 107.379 252.159 107.909 248.886 107.909ZM258.159 88.6364C260.462 88.6364 262.432 87.9697 264.068 86.6364C265.735 85.2727 267.008 83.3636 267.886 80.9091C268.795 78.4242 269.25 75.4848 269.25 72.0909C269.25 68.6364 268.795 65.6818 267.886 63.2273C267.008 60.7424 265.735 58.8485 264.068 57.5455C262.432 56.2121 260.462 55.5455 258.159 55.5455C255.856 55.5455 253.886 56.2121 252.25 57.5455C250.644 58.8485 249.402 60.7424 248.523 63.2273C247.674 65.6818 247.25 68.6364 247.25 72.0909C247.25 75.5455 247.674 78.5152 248.523 81C249.402 83.4545 250.644 85.3485 252.25 86.6818C253.886 87.9848 255.856 88.6364 258.159 88.6364ZM339.75 108.273C332.174 108.273 325.689 106.773 320.295 103.773C314.902 100.742 310.765 96.5303 307.886 91.1364C305.008 85.7121 303.568 79.4242 303.568 72.2727C303.568 65.1212 305.008 58.8485 307.886 53.4545C310.765 48.0303 314.902 43.8182 320.295 40.8182C325.689 37.7879 332.174 36.2727 339.75 36.2727C347.326 36.2727 353.811 37.7879 359.205 40.8182C364.598 43.8182 368.735 48.0303 371.614 53.4545C374.492 58.8485 375.932 65.1212 375.932 72.2727C375.932 79.4242 374.492 85.7121 371.614 91.1364C368.735 96.5303 364.598 100.742 359.205 103.773C353.811 106.773 347.326 108.273 339.75 108.273ZM339.932 89.7273C342.053 89.7273 343.886 89.0152 345.432 87.5909C346.977 86.1667 348.174 84.1364 349.023 81.5C349.871 78.8636 350.295 75.7273 350.295 72.0909C350.295 68.4242 349.871 65.2879 349.023 62.6818C348.174 60.0455 346.977 58.0152 345.432 56.5909C343.886 55.1667 342.053 54.4545 339.932 54.4545C337.689 54.4545 335.765 55.1667 334.159 56.5909C332.553 58.0152 331.326 60.0455 330.477 62.6818C329.629 65.2879 329.205 68.4242 329.205 72.0909C329.205 75.7273 329.629 78.8636 330.477 81.5C331.326 84.1364 332.553 86.1667 334.159 87.5909C335.765 89.0152 337.689 89.7273 339.932 89.7273ZM411.205 67.7273V107H386.114V37.1818H409.932V50.4545H410.659C412.174 46.0303 414.841 42.5606 418.659 40.0455C422.508 37.5303 426.992 36.2727 432.114 36.2727C437.053 36.2727 441.341 37.4091 444.977 39.6818C448.644 41.9242 451.477 45.0151 453.477 48.9545C455.508 52.8939 456.508 57.3939 456.477 62.4545V107H431.386V67.7273C431.417 64.2727 430.538 61.5606 428.75 59.5909C426.992 57.6212 424.538 56.6364 421.386 56.6364C419.326 56.6364 417.523 57.0909 415.977 58C414.462 58.8788 413.295 60.1515 412.477 61.8182C411.659 63.4545 411.235 65.4242 411.205 67.7273ZM489.591 13.9091V24.8182C489.591 27.7879 488.985 30.7576 487.773 33.7273C486.591 36.6667 485.076 39.4091 483.227 41.9545C481.409 44.4697 479.53 46.5758 477.591 48.2727L467.227 43C468.5 40.8182 469.636 38.2879 470.636 35.4091C471.636 32.5303 472.136 29 472.136 24.8182V13.9091H489.591ZM546.125 37.1818V55.3636H500.125V37.1818H546.125ZM509.034 20.4545H534.125V84.5455C534.125 85.5152 534.292 86.3333 534.625 87C534.958 87.6364 535.473 88.1212 536.17 88.4545C536.867 88.7576 537.761 88.9091 538.852 88.9091C539.61 88.9091 540.489 88.8182 541.489 88.6364C542.519 88.4545 543.277 88.303 543.761 88.1818L547.398 105.818C546.277 106.152 544.67 106.561 542.58 107.045C540.519 107.53 538.064 107.848 535.216 108C529.458 108.303 524.625 107.712 520.716 106.227C516.807 104.712 513.867 102.333 511.898 99.0909C509.928 95.8485 508.973 91.7879 509.034 86.9091V20.4545ZM7.11364 197V127.182H30.9318V140.455H31.6591C33.1136 136.091 35.5985 132.636 39.1136 130.091C42.6288 127.545 46.8106 126.273 51.6591 126.273C56.5682 126.273 60.7955 127.576 64.3409 130.182C67.8864 132.758 70.0227 136.182 70.75 140.455H71.4773C72.6591 136.182 75.1742 132.758 79.0227 130.182C82.8712 127.576 87.3864 126.273 92.5682 126.273C99.2652 126.273 104.689 128.424 108.841 132.727C113.023 137.03 115.114 142.758 115.114 149.909V197H90.0227V156.273C90.0227 153.212 89.25 150.818 87.7046 149.091C86.1591 147.333 84.0833 146.455 81.4773 146.455C78.9015 146.455 76.8561 147.333 75.3409 149.091C73.8561 150.818 73.1136 153.212 73.1136 156.273V197H49.1136V156.273C49.1136 153.212 48.3409 150.818 46.7955 149.091C45.25 147.333 43.1742 146.455 40.5682 146.455C38.8409 146.455 37.3561 146.848 36.1136 147.636C34.8712 148.424 33.9015 149.561 33.2045 151.045C32.5379 152.5 32.2045 154.242 32.2045 156.273V197H7.11364ZM127.489 197V127.182H152.58V197H127.489ZM140.034 119.909C136.64 119.909 133.731 118.788 131.307 116.545C128.883 114.303 127.67 111.606 127.67 108.455C127.67 105.303 128.883 102.606 131.307 100.364C133.731 98.1212 136.64 97 140.034 97C143.458 97 146.367 98.1212 148.761 100.364C151.186 102.606 152.398 105.303 152.398 108.455C152.398 111.606 151.186 114.303 148.761 116.545C146.367 118.788 143.458 119.909 140.034 119.909ZM229.182 149.909H206.091C205.97 148.485 205.47 147.258 204.591 146.227C203.712 145.197 202.576 144.409 201.182 143.864C199.818 143.288 198.303 143 196.636 143C194.485 143 192.636 143.394 191.091 144.182C189.545 144.97 188.788 146.091 188.818 147.545C188.788 148.576 189.227 149.53 190.136 150.409C191.076 151.288 192.879 151.97 195.545 152.455L209.727 155C216.879 156.303 222.197 158.5 225.682 161.591C229.197 164.652 230.97 168.758 231 173.909C230.97 178.879 229.485 183.197 226.545 186.864C223.636 190.5 219.652 193.318 214.591 195.318C209.561 197.288 203.818 198.273 197.364 198.273C186.697 198.273 178.348 196.091 172.318 191.727C166.318 187.364 162.97 181.606 162.273 174.455H187.182C187.515 176.667 188.606 178.379 190.455 179.591C192.333 180.773 194.697 181.364 197.545 181.364C199.848 181.364 201.742 180.97 203.227 180.182C204.742 179.394 205.515 178.273 205.545 176.818C205.515 175.485 204.848 174.424 203.545 173.636C202.273 172.848 200.273 172.212 197.545 171.727L185.182 169.545C178.061 168.303 172.727 165.939 169.182 162.455C165.636 158.97 163.879 154.485 163.909 149C163.879 144.152 165.152 140.045 167.727 136.682C170.333 133.288 174.045 130.712 178.864 128.955C183.712 127.167 189.455 126.273 196.091 126.273C206.182 126.273 214.136 128.364 219.955 132.545C225.803 136.727 228.879 142.515 229.182 149.909ZM304.432 149.909H281.341C281.22 148.485 280.72 147.258 279.841 146.227C278.962 145.197 277.826 144.409 276.432 143.864C275.068 143.288 273.553 143 271.886 143C269.735 143 267.886 143.394 266.341 144.182C264.795 144.97 264.038 146.091 264.068 147.545C264.038 148.576 264.477 149.53 265.386 150.409C266.326 151.288 268.129 151.97 270.795 152.455L284.977 155C292.129 156.303 297.447 158.5 300.932 161.591C304.447 164.652 306.22 168.758 306.25 173.909C306.22 178.879 304.735 183.197 301.795 186.864C298.886 190.5 294.902 193.318 289.841 195.318C284.811 197.288 279.068 198.273 272.614 198.273C261.947 198.273 253.598 196.091 247.568 191.727C241.568 187.364 238.22 181.606 237.523 174.455H262.432C262.765 176.667 263.856 178.379 265.705 179.591C267.583 180.773 269.947 181.364 272.795 181.364C275.098 181.364 276.992 180.97 278.477 180.182C279.992 179.394 280.765 178.273 280.795 176.818C280.765 175.485 280.098 174.424 278.795 173.636C277.523 172.848 275.523 172.212 272.795 171.727L260.432 169.545C253.311 168.303 247.977 165.939 244.432 162.455C240.886 158.97 239.129 154.485 239.159 149C239.129 144.152 240.402 140.045 242.977 136.682C245.583 133.288 249.295 130.712 254.114 128.955C258.962 127.167 264.705 126.273 271.341 126.273C281.432 126.273 289.386 128.364 295.205 132.545C301.053 136.727 304.129 142.515 304.432 149.909ZM375 198.273C367.424 198.273 360.939 196.773 355.545 193.773C350.152 190.742 346.015 186.53 343.136 181.136C340.258 175.712 338.818 169.424 338.818 162.273C338.818 155.121 340.258 148.848 343.136 143.455C346.015 138.03 350.152 133.818 355.545 130.818C360.939 127.788 367.424 126.273 375 126.273C382.576 126.273 389.061 127.788 394.455 130.818C399.848 133.818 403.985 138.03 406.864 143.455C409.742 148.848 411.182 155.121 411.182 162.273C411.182 169.424 409.742 175.712 406.864 181.136C403.985 186.53 399.848 190.742 394.455 193.773C389.061 196.773 382.576 198.273 375 198.273ZM375.182 179.727C377.303 179.727 379.136 179.015 380.682 177.591C382.227 176.167 383.424 174.136 384.273 171.5C385.121 168.864 385.545 165.727 385.545 162.091C385.545 158.424 385.121 155.288 384.273 152.682C383.424 150.045 382.227 148.015 380.682 146.591C379.136 145.167 377.303 144.455 375.182 144.455C372.939 144.455 371.015 145.167 369.409 146.591C367.803 148.015 366.576 150.045 365.727 152.682C364.879 155.288 364.455 158.424 364.455 162.091C364.455 165.727 364.879 168.864 365.727 171.5C366.576 174.136 367.803 176.167 369.409 177.591C371.015 179.015 372.939 179.727 375.182 179.727ZM466.636 166.455V127.182H491.727V197H467.909V183.727H467.182C465.667 188.182 463.015 191.667 459.227 194.182C455.439 196.667 450.939 197.909 445.727 197.909C440.848 197.909 436.576 196.788 432.909 194.545C429.273 192.303 426.439 189.212 424.409 185.273C422.409 181.333 421.394 176.818 421.364 171.727V127.182H446.455V166.455C446.485 169.909 447.364 172.621 449.091 174.591C450.848 176.561 453.303 177.545 456.455 177.545C458.545 177.545 460.348 177.106 461.864 176.227C463.409 175.318 464.591 174.045 465.409 172.409C466.258 170.742 466.667 168.758 466.636 166.455ZM546.125 127.182V145.364H500.125V127.182H546.125ZM509.034 110.455H534.125V174.545C534.125 175.515 534.292 176.333 534.625 177C534.958 177.636 535.473 178.121 536.17 178.455C536.867 178.758 537.761 178.909 538.852 178.909C539.61 178.909 540.489 178.818 541.489 178.636C542.519 178.455 543.277 178.303 543.761 178.182L547.398 195.818C546.277 196.152 544.67 196.561 542.58 197.045C540.519 197.53 538.064 197.848 535.216 198C529.458 198.303 524.625 197.712 520.716 196.227C516.807 194.712 513.867 192.333 511.898 189.091C509.928 185.848 508.973 181.788 509.034 176.909V110.455ZM183.125 288.273C175.549 288.273 169.064 286.773 163.67 283.773C158.277 280.742 154.14 276.53 151.261 271.136C148.383 265.712 146.943 259.424 146.943 252.273C146.943 245.121 148.383 238.848 151.261 233.455C154.14 228.03 158.277 223.818 163.67 220.818C169.064 217.788 175.549 216.273 183.125 216.273C190.701 216.273 197.186 217.788 202.58 220.818C207.973 223.818 212.11 228.03 214.989 233.455C217.867 238.848 219.307 245.121 219.307 252.273C219.307 259.424 217.867 265.712 214.989 271.136C212.11 276.53 207.973 280.742 202.58 283.773C197.186 286.773 190.701 288.273 183.125 288.273ZM183.307 269.727C185.428 269.727 187.261 269.015 188.807 267.591C190.352 266.167 191.549 264.136 192.398 261.5C193.246 258.864 193.67 255.727 193.67 252.091C193.67 248.424 193.246 245.288 192.398 242.682C191.549 240.045 190.352 238.015 188.807 236.591C187.261 235.167 185.428 234.455 183.307 234.455C181.064 234.455 179.14 235.167 177.534 236.591C175.928 238.015 174.701 240.045 173.852 242.682C173.004 245.288 172.58 248.424 172.58 252.091C172.58 255.727 173.004 258.864 173.852 261.5C174.701 264.136 175.928 266.167 177.534 267.591C179.14 269.015 181.064 269.727 183.307 269.727ZM254.58 247.727V287H229.489V217.182H253.307V230.455H254.034C255.549 226.03 258.216 222.561 262.034 220.045C265.883 217.53 270.367 216.273 275.489 216.273C280.428 216.273 284.716 217.409 288.352 219.682C292.019 221.924 294.852 225.015 296.852 228.955C298.883 232.894 299.883 237.394 299.852 242.455V287H274.761V247.727C274.792 244.273 273.913 241.561 272.125 239.591C270.367 237.621 267.913 236.636 264.761 236.636C262.701 236.636 260.898 237.091 259.352 238C257.837 238.879 256.67 240.152 255.852 241.818C255.034 243.455 254.61 245.424 254.58 247.727ZM371.375 288.273C363.799 288.273 357.314 286.773 351.92 283.773C346.527 280.742 342.39 276.53 339.511 271.136C336.633 265.712 335.193 259.424 335.193 252.273C335.193 245.121 336.633 238.848 339.511 233.455C342.39 228.03 346.527 223.818 351.92 220.818C357.314 217.788 363.799 216.273 371.375 216.273C378.951 216.273 385.436 217.788 390.83 220.818C396.223 223.818 400.36 228.03 403.239 233.455C406.117 238.848 407.557 245.121 407.557 252.273C407.557 259.424 406.117 265.712 403.239 271.136C400.36 276.53 396.223 280.742 390.83 283.773C385.436 286.773 378.951 288.273 371.375 288.273ZM371.557 269.727C373.678 269.727 375.511 269.015 377.057 267.591C378.602 266.167 379.799 264.136 380.648 261.5C381.496 258.864 381.92 255.727 381.92 252.091C381.92 248.424 381.496 245.288 380.648 242.682C379.799 240.045 378.602 238.015 377.057 236.591C375.511 235.167 373.678 234.455 371.557 234.455C369.314 234.455 367.39 235.167 365.784 236.591C364.178 238.015 362.951 240.045 362.102 242.682C361.254 245.288 360.83 248.424 360.83 252.091C360.83 255.727 361.254 258.864 362.102 261.5C362.951 264.136 364.178 266.167 365.784 267.591C367.39 269.015 369.314 269.727 371.557 269.727ZM463.011 256.455V217.182H488.102V287H464.284V273.727H463.557C462.042 278.182 459.39 281.667 455.602 284.182C451.814 286.667 447.314 287.909 442.102 287.909C437.223 287.909 432.951 286.788 429.284 284.545C425.648 282.303 422.814 279.212 420.784 275.273C418.784 271.333 417.769 266.818 417.739 261.727V217.182H442.83V256.455C442.86 259.909 443.739 262.621 445.466 264.591C447.223 266.561 449.678 267.545 452.83 267.545C454.92 267.545 456.723 267.106 458.239 266.227C459.784 265.318 460.966 264.045 461.784 262.409C462.633 260.742 463.042 258.758 463.011 256.455ZM500.864 287V217.182H525.227V230.455H525.955C527.227 225.545 529.242 221.955 532 219.682C534.788 217.409 538.045 216.273 541.773 216.273C542.864 216.273 543.939 216.364 545 216.545C546.091 216.697 547.136 216.924 548.136 217.227V238.636C546.894 238.212 545.364 237.894 543.545 237.682C541.727 237.47 540.167 237.364 538.864 237.364C536.409 237.364 534.197 237.924 532.227 239.045C530.288 240.136 528.758 241.682 527.636 243.682C526.515 245.652 525.955 247.97 525.955 250.636V287H500.864Z"/>
</mask>
<path d="M235.159 104L234.627 104.847L234.63 104.849L235.159 104ZM225.159 92.1364L224.254 92.5607L224.256 92.5649L225.159 92.1364ZM225.341 51.5455L224.446 51.0982L224.444 51.1024L225.341 51.5455ZM235.523 39.9545L235.017 39.0921L235.014 39.0937L235.523 39.9545ZM257.795 38.0909L257.374 38.9977L257.382 39.0016L257.795 38.0909ZM264.341 42.8636L263.59 43.5238L263.595 43.5294L264.341 42.8636ZM268.341 49.3636L267.408 49.7226L267.654 50.3636H268.341V49.3636ZM268.705 49.3636V50.3636H269.705V49.3636H268.705ZM268.705 13.9091V12.9091H267.705V13.9091H268.705ZM293.795 13.9091H294.795V12.9091H293.795V13.9091ZM293.795 107V108H294.795V107H293.795ZM268.886 107H267.886V108H268.886V107ZM268.886 95.5455H269.886V94.5455H268.886V95.5455ZM268.341 95.5455V94.5455H267.67L267.416 95.1659L268.341 95.5455ZM264.159 101.909L263.44 101.214L263.44 101.214L264.159 101.909ZM257.614 106.318L257.998 107.241L258.004 107.239L257.614 106.318ZM264.068 86.6364L264.7 87.4116L264.701 87.4103L264.068 86.6364ZM267.886 80.9091L266.947 80.5655L266.945 80.572L267.886 80.9091ZM267.886 63.2273L266.944 63.5607L266.946 63.5677L266.949 63.5746L267.886 63.2273ZM264.068 57.5455L263.437 58.3207L263.444 58.3271L263.452 58.3333L264.068 57.5455ZM252.25 57.5455L252.88 58.322L252.882 58.3207L252.25 57.5455ZM248.523 63.2273L247.58 62.8938L247.578 62.9006L248.523 63.2273ZM248.523 81L247.576 81.3231L247.579 81.3301L247.581 81.3371L248.523 81ZM252.25 86.6818L251.611 87.4512L251.619 87.4577L251.627 87.4641L252.25 86.6818ZM248.886 106.909C244.102 106.909 239.71 105.658 235.688 103.151L234.63 104.849C238.972 107.555 243.731 108.909 248.886 108.909V106.909ZM235.691 103.153C231.73 100.667 228.512 96.8732 226.063 91.7078L224.256 92.5649C226.836 98.0056 230.285 102.121 234.627 104.847L235.691 103.153ZM226.065 91.7121C223.661 86.582 222.432 80.0568 222.432 72.0909H220.432C220.432 80.2462 221.688 87.0847 224.254 92.5607L226.065 91.7121ZM222.432 72.0909C222.432 63.7585 223.722 57.0771 226.237 51.9885L224.444 51.1024C221.747 56.5593 220.432 63.5748 220.432 72.0909H222.432ZM226.235 51.9927C228.805 46.8535 232.079 43.1522 236.032 40.8153L235.014 39.0937C230.663 41.666 227.15 45.6919 224.446 51.0982L226.235 51.9927ZM236.029 40.817C240.066 38.4476 244.286 37.2727 248.705 37.2727V35.2727C243.911 35.2727 239.343 36.5524 235.017 39.0921L236.029 40.817ZM248.705 37.2727C252.042 37.2727 254.924 37.8581 257.374 38.9976L258.217 37.1842C255.455 35.8995 252.276 35.2727 248.705 35.2727V37.2727ZM257.382 39.0016C259.869 40.1293 261.933 41.6381 263.59 43.5237L265.092 42.2035C263.234 40.0891 260.934 38.4161 258.208 37.1802L257.382 39.0016ZM263.595 43.5294C265.275 45.4129 266.544 47.4765 267.408 49.7226L269.274 49.0047C268.32 46.5235 266.922 44.2538 265.087 42.1978L263.595 43.5294ZM268.341 50.3636H268.705V48.3636H268.341V50.3636ZM269.705 49.3636V13.9091H267.705V49.3636H269.705ZM268.705 14.9091H293.795V12.9091H268.705V14.9091ZM292.795 13.9091V107H294.795V13.9091H292.795ZM293.795 106H268.886V108H293.795V106ZM269.886 107V95.5455H267.886V107H269.886ZM268.886 94.5455H268.341V96.5455H268.886V94.5455ZM267.416 95.1659C266.495 97.4093 265.172 99.4239 263.44 101.214L264.878 102.605C266.782 100.637 268.247 98.4089 269.266 95.925L267.416 95.1659ZM263.44 101.214C261.754 102.958 259.687 104.354 257.224 105.397L258.004 107.239C260.692 106.1 262.989 104.557 264.878 102.604L263.44 101.214ZM257.229 105.395C254.826 106.396 252.051 106.909 248.886 106.909V108.909C252.267 108.909 255.31 108.361 257.998 107.241L257.229 105.395ZM258.159 89.6364C260.67 89.6364 262.868 88.9039 264.7 87.4116L263.437 85.8611C261.995 87.0355 260.254 87.6364 258.159 87.6364V89.6364ZM264.701 87.4103C266.536 85.9097 267.901 83.8355 268.828 81.2462L266.945 80.572C266.114 82.8917 264.934 84.6358 263.435 85.8624L264.701 87.4103ZM268.826 81.2527C269.784 78.6316 270.25 75.5705 270.25 72.0909H268.25C268.25 75.3992 267.806 78.2169 266.947 80.5655L268.826 81.2527ZM270.25 72.0909C270.25 68.5536 269.785 65.4749 268.824 62.88L266.949 63.5746C267.806 65.8887 268.25 68.7191 268.25 72.0909H270.25ZM268.829 62.8939C267.902 60.2736 266.534 58.2037 264.684 56.7576L263.452 58.3333C264.936 59.4932 266.113 61.2113 266.944 63.5607L268.829 62.8939ZM264.7 56.7702C262.868 55.278 260.67 54.5455 258.159 54.5455V56.5455C260.254 56.5455 261.995 57.1463 263.437 58.3207L264.7 56.7702ZM258.159 54.5455C255.648 54.5455 253.45 55.278 251.618 56.7702L252.882 58.3207C254.323 57.1463 256.064 56.5455 258.159 56.5455V54.5455ZM251.62 56.7689C249.836 58.2159 248.504 60.2823 247.58 62.8938L249.465 63.5607C250.299 61.2025 251.451 59.4811 252.88 58.322L251.62 56.7689ZM247.578 62.9006C246.683 65.4884 246.25 68.5596 246.25 72.0909H248.25C248.25 68.7131 248.665 65.8752 249.468 63.554L247.578 62.9006ZM246.25 72.0909C246.25 75.6227 246.683 78.7073 247.576 81.3231L249.469 80.6769C248.665 78.323 248.25 75.4682 248.25 72.0909H246.25ZM247.581 81.3371C248.506 83.9187 249.837 85.9782 251.611 87.4512L252.889 85.9124C251.451 84.7187 250.298 82.9904 249.464 80.6629L247.581 81.3371ZM251.627 87.4641C253.459 88.9225 255.654 89.6364 258.159 89.6364V87.6364C256.058 87.6364 254.314 87.0472 252.873 85.8995L251.627 87.4641ZM320.295 103.773L319.806 104.645L319.809 104.647L320.295 103.773ZM307.886 91.1364L307.003 91.6052L307.004 91.6072L307.886 91.1364ZM307.886 53.4545L308.769 53.9254L308.77 53.9233L307.886 53.4545ZM320.295 40.8182L320.782 41.6921L320.785 41.69L320.295 40.8182ZM359.205 40.8182L358.715 41.69L358.718 41.6921L359.205 40.8182ZM371.614 53.4545L370.73 53.9233L370.731 53.9254L371.614 53.4545ZM371.614 91.1364L372.496 91.6072L372.497 91.6052L371.614 91.1364ZM359.205 103.773L359.691 104.647L359.694 104.645L359.205 103.773ZM345.432 87.5909L346.109 88.3263L345.432 87.5909ZM349.023 81.5L349.975 81.8064L349.023 81.5ZM349.023 62.6818L348.071 62.9882L348.072 62.9914L349.023 62.6818ZM345.432 56.5909L346.109 55.8556L345.432 56.5909ZM330.477 62.6818L331.428 62.9914L331.429 62.9882L330.477 62.6818ZM330.477 81.5L331.429 81.1936L330.477 81.5ZM339.75 107.273C332.306 107.273 325.997 105.799 320.782 102.899L319.809 104.647C325.382 107.746 332.042 109.273 339.75 109.273V107.273ZM320.785 102.901C315.556 99.9629 311.556 95.889 308.769 90.6655L307.004 91.6072C309.974 97.1716 314.247 101.522 319.806 104.645L320.785 102.901ZM308.77 90.6676C305.979 85.4098 304.568 79.2878 304.568 72.2727H302.568C302.568 79.5607 304.036 86.0144 307.003 91.6052L308.77 90.6676ZM304.568 72.2727C304.568 65.2575 305.979 59.1516 308.769 53.9254L307.004 52.9837C304.036 58.5453 302.568 64.9849 302.568 72.2727H304.568ZM308.77 53.9233C311.557 48.6706 315.555 44.5988 320.782 41.6921L319.809 39.9443C314.248 43.0376 309.973 47.39 307.003 52.9857L308.77 53.9233ZM320.785 41.69C326 38.7607 332.308 37.2727 339.75 37.2727V35.2727C332.041 35.2727 325.379 36.8151 319.806 39.9463L320.785 41.69ZM339.75 37.2727C347.192 37.2727 353.5 38.7607 358.715 41.69L359.694 39.9463C354.121 36.8151 347.459 35.2727 339.75 35.2727V37.2727ZM358.718 41.6921C363.945 44.5988 367.943 48.6706 370.73 53.9233L372.497 52.9857C369.527 47.39 365.252 43.0376 359.691 39.9443L358.718 41.6921ZM370.731 53.9254C373.521 59.1516 374.932 65.2575 374.932 72.2727H376.932C376.932 64.9849 375.464 58.5453 372.496 52.9837L370.731 53.9254ZM374.932 72.2727C374.932 79.2878 373.521 85.4098 370.73 90.6676L372.497 91.6052C375.464 86.0144 376.932 79.5607 376.932 72.2727H374.932ZM370.731 90.6655C367.944 95.889 363.944 99.9629 358.715 102.901L359.694 104.645C365.253 101.522 369.526 97.1716 372.496 91.6072L370.731 90.6655ZM358.718 102.899C353.503 105.799 347.194 107.273 339.75 107.273V109.273C347.458 109.273 354.118 107.746 359.691 104.647L358.718 102.899ZM339.932 90.7273C342.302 90.7273 344.378 89.9224 346.109 88.3263L344.754 86.8556C343.395 88.1079 341.805 88.7273 339.932 88.7273V90.7273ZM346.109 88.3263C347.816 86.7537 349.09 84.5564 349.975 81.8064L348.071 81.1936C347.259 83.7163 346.139 85.5796 344.754 86.8556L346.109 88.3263ZM349.975 81.8064C350.863 79.0456 351.295 75.8007 351.295 72.0909H349.295C349.295 75.6539 348.879 78.6817 348.071 81.1936L349.975 81.8064ZM351.295 72.0909C351.295 68.3523 350.864 65.1056 349.974 62.3722L348.072 62.9914C348.879 65.4702 349.295 68.4962 349.295 72.0909H351.295ZM349.975 62.3755C349.09 59.6254 347.816 57.4281 346.109 55.8556L344.754 57.3263C346.139 58.6022 347.259 60.4655 348.071 62.9882L349.975 62.3755ZM346.109 55.8556C344.378 54.2594 342.302 53.4545 339.932 53.4545V55.4545C341.805 55.4545 343.395 56.0739 344.754 57.3263L346.109 55.8556ZM339.932 53.4545C337.457 53.4545 335.293 54.2485 333.496 55.8427L334.823 57.3391C336.237 56.0848 337.922 55.4545 339.932 55.4545V53.4545ZM333.496 55.8427C331.722 57.4155 330.413 59.6171 329.525 62.3755L331.429 62.9882C332.238 60.4738 333.384 58.6148 334.823 57.3391L333.496 55.8427ZM329.526 62.3722C328.636 65.1056 328.205 68.3523 328.205 72.0909H330.205C330.205 68.4962 330.621 65.4702 331.428 62.9914L329.526 62.3722ZM328.205 72.0909C328.205 75.8007 328.637 79.0456 329.525 81.8064L331.429 81.1936C330.621 78.6817 330.205 75.6539 330.205 72.0909H328.205ZM329.525 81.8064C330.413 84.5647 331.722 86.7663 333.496 88.3391L334.823 86.8427C333.384 85.567 332.238 83.708 331.429 81.1936L329.525 81.8064ZM333.496 88.3391C335.293 89.9333 337.457 90.7273 339.932 90.7273V88.7273C337.922 88.7273 336.237 88.097 334.823 86.8427L333.496 88.3391ZM411.205 67.7273L410.205 67.7141V67.7273H411.205ZM411.205 107V108H412.205V107H411.205ZM386.114 107H385.114V108H386.114V107ZM386.114 37.1818V36.1818H385.114V37.1818H386.114ZM409.932 37.1818H410.932V36.1818H409.932V37.1818ZM409.932 50.4545H408.932V51.4545H409.932V50.4545ZM410.659 50.4545V51.4545H411.374L411.605 50.7785L410.659 50.4545ZM418.659 40.0455L418.112 39.2084L418.109 39.2104L418.659 40.0455ZM444.977 39.6818L444.447 40.5299L444.456 40.5349L444.977 39.6818ZM453.477 48.9545L452.586 49.4072L452.588 49.4127L453.477 48.9545ZM456.477 62.4545L455.477 62.4486V62.4545H456.477ZM456.477 107V108H457.477V107H456.477ZM431.386 107H430.386V108H431.386V107ZM431.386 67.7273L430.386 67.7185V67.7273H431.386ZM428.75 59.5909L428.004 60.2567L428.01 60.263L428.75 59.5909ZM415.977 58L416.479 58.865L416.484 58.8619L415.977 58ZM412.477 61.8182L413.372 62.2654L413.375 62.2589L412.477 61.8182ZM410.205 67.7273V107H412.205V67.7273H410.205ZM411.205 106H386.114V108H411.205V106ZM387.114 107V37.1818H385.114V107H387.114ZM386.114 38.1818H409.932V36.1818H386.114V38.1818ZM408.932 37.1818V50.4545H410.932V37.1818H408.932ZM409.932 51.4545H410.659V49.4545H409.932V51.4545ZM411.605 50.7785C413.05 46.5586 415.58 43.2709 419.209 40.8806L418.109 39.2104C414.101 41.8503 411.298 45.502 409.713 50.1306L411.605 50.7785ZM419.206 40.8825C422.874 38.4856 427.164 37.2727 432.114 37.2727V35.2727C426.821 35.2727 422.141 36.575 418.112 39.2084L419.206 40.8825ZM432.114 37.2727C436.895 37.2727 440.993 38.3708 444.447 40.5298L445.507 38.8338C441.689 36.4474 437.211 35.2727 432.114 35.2727V37.2727ZM444.456 40.5349C447.96 42.6779 450.667 45.6281 452.586 49.4072L454.369 48.5019C452.288 44.4022 449.328 41.1706 445.499 38.8287L444.456 40.5349ZM452.588 49.4127C454.535 53.1894 455.507 57.5263 455.477 62.4486L457.477 62.4605C457.508 57.2616 456.48 52.5985 454.366 48.4964L452.588 49.4127ZM455.477 62.4545V107H457.477V62.4545H455.477ZM456.477 106H431.386V108H456.477V106ZM432.386 107V67.7273H430.386V107H432.386ZM432.386 67.736C432.418 64.1074 431.493 61.1251 429.49 58.9188L428.01 60.263C429.583 61.9961 430.415 64.4381 430.386 67.7185L432.386 67.736ZM429.496 58.9251C427.512 56.7016 424.763 55.6364 421.386 55.6364V57.6364C424.313 57.6364 426.473 58.5408 428.004 60.2567L429.496 58.9251ZM421.386 55.6364C419.174 55.6364 417.191 56.1258 415.47 57.1381L416.484 58.8619C417.854 58.056 419.477 57.6364 421.386 57.6364V55.6364ZM415.476 57.135C413.779 58.119 412.479 59.5446 411.58 61.3775L413.375 62.2589C414.112 60.7585 415.145 59.6385 416.479 58.865L415.476 57.135ZM411.583 61.371C410.682 63.1725 410.236 65.2983 410.205 67.7141L412.204 67.7404C412.233 65.5502 412.636 63.7366 413.372 62.2654L411.583 61.371ZM489.591 13.9091H490.591V12.9091H489.591V13.9091ZM487.773 33.7273L486.847 33.3494L486.845 33.3542L487.773 33.7273ZM483.227 41.9545L482.418 41.3669L482.417 41.3687L483.227 41.9545ZM477.591 48.2727L477.137 49.164L477.74 49.4707L478.249 49.0253L477.591 48.2727ZM467.227 43L466.363 42.4961L465.83 43.411L466.774 43.8913L467.227 43ZM472.136 13.9091V12.9091H471.136V13.9091H472.136ZM488.591 13.9091V24.8182H490.591V13.9091H488.591ZM488.591 24.8182C488.591 27.6482 488.014 30.49 486.847 33.3494L488.699 34.1052C489.956 31.0252 490.591 27.9275 490.591 24.8182H488.591ZM486.845 33.3542C485.693 36.2181 484.218 38.8883 482.418 41.3669L484.036 42.5421C485.933 39.9298 487.488 37.1153 488.701 34.1003L486.845 33.3542ZM482.417 41.3687C480.634 43.8347 478.805 45.8817 476.932 47.5201L478.249 49.0253C480.256 47.2698 482.184 45.1047 484.038 42.5404L482.417 41.3687ZM478.044 47.3814L467.681 42.1087L466.774 43.8913L477.137 49.164L478.044 47.3814ZM468.091 43.5039C469.402 41.2562 470.564 38.665 471.581 35.7372L469.692 35.081C468.709 37.9107 467.598 40.3802 466.363 42.4961L468.091 43.5039ZM471.581 35.7372C472.628 32.7218 473.136 29.0731 473.136 24.8182H471.136C471.136 28.9269 470.644 32.3388 469.692 35.081L471.581 35.7372ZM473.136 24.8182V13.9091H471.136V24.8182H473.136ZM472.136 14.9091H489.591V12.9091H472.136V14.9091ZM546.125 37.1818H547.125V36.1818H546.125V37.1818ZM546.125 55.3636V56.3636H547.125V55.3636H546.125ZM500.125 55.3636H499.125V56.3636H500.125V55.3636ZM500.125 37.1818V36.1818H499.125V37.1818H500.125ZM509.034 20.4545V19.4545H508.034V20.4545H509.034ZM534.125 20.4545H535.125V19.4545H534.125V20.4545ZM534.625 87L533.731 87.4472L533.735 87.4557L533.739 87.464L534.625 87ZM536.17 88.4545L535.739 89.3567L535.755 89.3644L535.772 89.3716L536.17 88.4545ZM541.489 88.6364L541.315 87.6516L541.31 87.6525L541.489 88.6364ZM543.761 88.1818L544.741 87.9799L544.53 86.9588L543.519 87.2117L543.761 88.1818ZM547.398 105.818L547.683 106.777L548.562 106.515L548.377 105.616L547.398 105.818ZM542.58 107.045L542.354 106.071L542.351 106.072L542.58 107.045ZM535.216 108L535.268 108.999L535.269 108.999L535.216 108ZM520.716 106.227L520.354 107.16L520.361 107.162L520.716 106.227ZM511.898 99.0909L511.043 99.6101L511.898 99.0909ZM509.034 86.9091L510.034 86.9215V86.9091H509.034ZM545.125 37.1818V55.3636H547.125V37.1818H545.125ZM546.125 54.3636H500.125V56.3636H546.125V54.3636ZM501.125 55.3636V37.1818H499.125V55.3636H501.125ZM500.125 38.1818H546.125V36.1818H500.125V38.1818ZM509.034 21.4545H534.125V19.4545H509.034V21.4545ZM533.125 20.4545V84.5455H535.125V20.4545H533.125ZM533.125 84.5455C533.125 85.6254 533.31 86.6063 533.731 87.4472L535.519 86.5528C535.273 86.0603 535.125 85.405 535.125 84.5455H533.125ZM533.739 87.464C534.18 88.3064 534.863 88.9377 535.739 89.3567L536.602 87.5524C536.084 87.3048 535.736 86.9663 535.511 86.536L533.739 87.464ZM535.772 89.3716C536.637 89.7477 537.679 89.9091 538.852 89.9091V87.9091C537.843 87.9091 537.098 87.7674 536.569 87.5375L535.772 89.3716ZM538.852 89.9091C539.686 89.9091 540.627 89.8094 541.668 89.6202L541.31 87.6525C540.35 87.827 539.534 87.9091 538.852 87.9091V89.9091ZM541.662 89.6211C542.697 89.4386 543.483 89.2822 544.004 89.152L543.519 87.2117C543.07 87.3239 542.341 87.4704 541.315 87.6516L541.662 89.6211ZM542.782 88.3838L546.418 106.02L548.377 105.616L544.741 87.9799L542.782 88.3838ZM547.113 104.86C546.021 105.184 544.438 105.588 542.354 106.071L542.805 108.02C544.903 107.533 546.532 107.119 547.683 106.777L547.113 104.86ZM542.351 106.072C540.364 106.54 537.971 106.852 535.163 107.001L535.269 108.999C538.158 108.845 540.674 108.521 542.809 108.019L542.351 106.072ZM535.163 107.001C529.495 107.3 524.811 106.713 521.071 105.292L520.361 107.162C524.439 108.711 529.421 109.306 535.268 108.999L535.163 107.001ZM521.077 105.295C517.351 103.85 514.596 101.606 512.752 98.5717L511.043 99.6101C513.139 103.061 516.263 105.574 520.354 107.16L521.077 105.295ZM512.752 98.5717C510.904 95.5292 509.975 91.6658 510.034 86.9215L508.034 86.8967C507.972 91.9099 508.952 96.1677 511.043 99.6101L512.752 98.5717ZM510.034 86.9091V20.4545H508.034V86.9091H510.034ZM7.11364 197H6.11364V198H7.11364V197ZM7.11364 127.182V126.182H6.11364V127.182H7.11364ZM30.9318 127.182H31.9318V126.182H30.9318V127.182ZM30.9318 140.455H29.9318V141.455H30.9318V140.455ZM31.6591 140.455V141.455H32.3799L32.6078 140.771L31.6591 140.455ZM39.1136 130.091L38.5271 129.281L39.1136 130.091ZM64.3409 130.182L63.7486 130.988L63.7532 130.991L64.3409 130.182ZM70.75 140.455L69.7642 140.622L69.9058 141.455H70.75V140.455ZM71.4773 140.455V141.455H72.2382L72.4411 140.721L71.4773 140.455ZM79.0227 130.182L79.5789 131.013L79.5834 131.01L79.0227 130.182ZM108.841 132.727L108.121 133.422L108.124 133.424L108.841 132.727ZM115.114 197V198H116.114V197H115.114ZM90.0227 197H89.0227V198H90.0227V197ZM87.7046 149.091L86.9536 149.751L86.9593 149.758L87.7046 149.091ZM75.3409 149.091L74.5835 148.438L74.5826 148.439L75.3409 149.091ZM73.1136 197V198H74.1136V197H73.1136ZM49.1136 197H48.1136V198H49.1136V197ZM46.7955 149.091L46.0445 149.751L46.0502 149.758L46.7955 149.091ZM36.1136 147.636L36.6492 148.481L36.1136 147.636ZM33.2045 151.045L32.2993 150.621L32.2955 150.629L33.2045 151.045ZM32.2045 197V198H33.2045V197H32.2045ZM8.11364 197V127.182H6.11364V197H8.11364ZM7.11364 128.182H30.9318V126.182H7.11364V128.182ZM29.9318 127.182V140.455H31.9318V127.182H29.9318ZM30.9318 141.455H31.6591V139.455H30.9318V141.455ZM32.6078 140.771C34.0004 136.593 36.3648 133.316 39.7001 130.901L38.5271 129.281C34.8322 131.957 32.2269 135.589 30.7104 140.138L32.6078 140.771ZM39.7001 130.901C43.0249 128.493 46.9954 127.273 51.6591 127.273V125.273C46.6258 125.273 42.2327 126.598 38.5271 129.281L39.7001 130.901ZM51.6591 127.273C56.381 127.273 60.3946 128.522 63.7487 130.988L64.9332 129.376C61.1963 126.629 56.7554 125.273 51.6591 125.273V127.273ZM63.7532 130.991C67.0899 133.415 69.0813 136.61 69.7642 140.622L71.7358 140.287C70.9642 135.753 68.6829 132.1 64.9287 129.373L63.7532 130.991ZM70.75 141.455H71.4773V139.455H70.75V141.455ZM72.4411 140.721C73.556 136.69 75.9199 133.462 79.5789 131.013L78.4665 129.351C74.4286 132.053 71.7622 135.673 70.5135 140.188L72.4411 140.721ZM79.5834 131.01C83.2477 128.529 87.5624 127.273 92.5682 127.273V125.273C87.2103 125.273 82.4947 126.623 78.462 129.354L79.5834 131.01ZM92.5682 127.273C99.0295 127.273 104.182 129.338 108.121 133.422L109.561 132.033C105.197 127.51 99.5008 125.273 92.5682 125.273V127.273ZM108.124 133.424C112.09 137.506 114.114 142.965 114.114 149.909H116.114C116.114 142.551 113.955 136.555 109.558 132.03L108.124 133.424ZM114.114 149.909V197H116.114V149.909H114.114ZM115.114 196H90.0227V198H115.114V196ZM91.0227 197V156.273H89.0227V197H91.0227ZM91.0227 156.273C91.0227 153.046 90.206 150.387 88.4498 148.424L86.9593 149.758C88.294 151.249 89.0227 153.378 89.0227 156.273H91.0227ZM88.4555 148.431C86.6974 146.431 84.3344 145.455 81.4773 145.455V147.455C83.8323 147.455 85.6208 148.236 86.9536 149.751L88.4555 148.431ZM81.4773 145.455C78.6465 145.455 76.3109 146.434 74.5835 148.438L76.0983 149.744C77.4012 148.232 79.1565 147.455 81.4773 147.455V145.455ZM74.5826 148.439C72.8952 150.402 72.1136 153.056 72.1136 156.273H74.1136C74.1136 153.368 74.817 151.234 76.0992 149.743L74.5826 148.439ZM72.1136 156.273V197H74.1136V156.273H72.1136ZM73.1136 196H49.1136V198H73.1136V196ZM50.1136 197V156.273H48.1136V197H50.1136ZM50.1136 156.273C50.1136 153.046 49.2969 150.387 47.5407 148.424L46.0502 149.758C47.3849 151.249 48.1136 153.378 48.1136 156.273H50.1136ZM47.5464 148.431C45.7883 146.431 43.4253 145.455 40.5682 145.455V147.455C42.9232 147.455 44.7117 148.236 46.0445 149.751L47.5464 148.431ZM40.5682 145.455C38.6848 145.455 37.0068 145.886 35.5781 146.792L36.6492 148.481C37.7053 147.811 38.997 147.455 40.5682 147.455V145.455ZM35.5781 146.792C34.157 147.693 33.0675 148.984 32.2993 150.621L34.1098 151.47C34.7355 150.137 35.5854 149.155 36.6492 148.481L35.5781 146.792ZM32.2955 150.629C31.5551 152.244 31.2045 154.136 31.2045 156.273H33.2045C33.2045 154.349 33.5207 152.756 34.1136 151.462L32.2955 150.629ZM31.2045 156.273V197H33.2045V156.273H31.2045ZM32.2045 196H7.11364V198H32.2045V196ZM127.489 197H126.489V198H127.489V197ZM127.489 127.182V126.182H126.489V127.182H127.489ZM152.58 127.182H153.58V126.182H152.58V127.182ZM152.58 197V198H153.58V197H152.58ZM131.307 116.545L130.628 117.28L131.307 116.545ZM131.307 100.364L130.628 99.6295L131.307 100.364ZM148.761 100.364L148.078 101.093L148.082 101.098L148.761 100.364ZM148.761 116.545L148.082 115.811L148.078 115.816L148.761 116.545ZM128.489 197V127.182H126.489V197H128.489ZM127.489 128.182H152.58V126.182H127.489V128.182ZM151.58 127.182V197H153.58V127.182H151.58ZM152.58 196H127.489V198H152.58V196ZM140.034 118.909C136.884 118.909 134.22 117.878 131.986 115.811L130.628 117.28C133.242 119.698 136.396 120.909 140.034 120.909V118.909ZM131.986 115.811C129.755 113.748 128.67 111.313 128.67 108.455H126.67C126.67 111.899 128.01 114.858 130.628 117.28L131.986 115.811ZM128.67 108.455C128.67 105.596 129.755 103.161 131.986 101.098L130.628 99.6295C128.01 102.051 126.67 105.01 126.67 108.455H128.67ZM131.986 101.098C134.22 99.0314 136.884 98 140.034 98V96C136.396 96 133.242 97.211 130.628 99.6295L131.986 101.098ZM140.034 98C143.217 98 145.878 99.0329 148.078 101.093L149.445 99.6338C146.857 97.2096 143.7 96 140.034 96V98ZM148.082 101.098C150.313 103.161 151.398 105.596 151.398 108.455H153.398C153.398 105.01 152.058 102.051 149.44 99.6295L148.082 101.098ZM151.398 108.455C151.398 111.313 150.313 113.748 148.082 115.811L149.44 117.28C152.058 114.858 153.398 111.899 153.398 108.455H151.398ZM148.078 115.816C145.878 117.876 143.217 118.909 140.034 118.909V120.909C143.7 120.909 146.857 119.7 149.445 117.275L148.078 115.816ZM229.182 149.909V150.909H230.224L230.181 149.868L229.182 149.909ZM206.091 149.909L205.095 149.994L205.172 150.909H206.091V149.909ZM204.591 146.227L205.352 145.578L204.591 146.227ZM201.182 143.864L200.793 144.785L200.805 144.79L200.817 144.795L201.182 143.864ZM191.091 144.182L190.637 143.291L191.091 144.182ZM188.818 147.545L189.818 147.575L189.818 147.55L189.818 147.525L188.818 147.545ZM190.136 150.409L189.441 151.128L189.447 151.134L189.453 151.139L190.136 150.409ZM195.545 152.455L195.367 153.438L195.369 153.439L195.545 152.455ZM209.727 155L209.907 154.016L209.904 154.016L209.727 155ZM225.682 161.591L225.018 162.339L225.025 162.345L225.682 161.591ZM231 173.909L232 173.915L232 173.903L231 173.909ZM226.545 186.864L225.765 186.238L225.765 186.239L226.545 186.864ZM214.591 195.318L214.956 196.249L214.958 196.248L214.591 195.318ZM172.318 191.727L171.73 192.536L171.732 192.537L172.318 191.727ZM162.273 174.455V173.455H161.171L161.277 174.552L162.273 174.455ZM187.182 174.455L188.171 174.306L188.042 173.455H187.182V174.455ZM190.455 179.591L189.906 180.427L189.914 180.432L189.922 180.437L190.455 179.591ZM203.227 180.182L202.766 179.295L202.759 179.298L203.227 180.182ZM205.545 176.818L206.545 176.839L206.546 176.817L206.545 176.795L205.545 176.818ZM203.545 173.636L203.019 174.487L203.028 174.492L203.545 173.636ZM197.545 171.727L197.72 170.743L197.719 170.742L197.545 171.727ZM185.182 169.545L185.356 168.561L185.354 168.56L185.182 169.545ZM169.182 162.455L169.883 161.741L169.182 162.455ZM163.909 149L164.909 149.006L164.909 148.994L163.909 149ZM167.727 136.682L166.934 136.073L166.933 136.074L167.727 136.682ZM178.864 128.955L179.206 129.894L179.21 129.893L178.864 128.955ZM219.955 132.545L219.371 133.357L219.373 133.359L219.955 132.545ZM229.182 148.909H206.091V150.909H229.182V148.909ZM207.087 149.824C206.949 148.204 206.374 146.777 205.352 145.578L203.83 146.876C204.566 147.739 204.99 148.765 205.095 149.994L207.087 149.824ZM205.352 145.578C204.355 144.41 203.077 143.531 201.546 142.932L200.817 144.795C202.074 145.287 203.069 145.984 203.83 146.876L205.352 145.578ZM201.571 142.942C200.069 142.309 198.42 142 196.636 142V144C198.186 144 199.567 144.267 200.793 144.785L201.571 142.942ZM196.636 142C194.364 142 192.353 142.416 190.637 143.291L191.545 145.073C192.92 144.372 194.606 144 196.636 144V142ZM190.637 143.291C189.755 143.741 189.032 144.319 188.535 145.054C188.032 145.799 187.799 146.649 187.818 147.566L189.818 147.525C189.807 146.988 189.938 146.55 190.192 146.173C190.453 145.787 190.882 145.411 191.545 145.073L190.637 143.291ZM187.819 147.516C187.778 148.89 188.379 150.102 189.441 151.128L190.831 149.69C190.075 148.959 189.798 148.262 189.818 147.575L187.819 147.516ZM189.453 151.139C190.62 152.231 192.679 152.95 195.367 153.438L195.724 151.471C193.079 150.99 191.532 150.345 190.82 149.679L189.453 151.139ZM195.369 153.439L209.551 155.984L209.904 154.016L195.722 151.47L195.369 153.439ZM209.548 155.984C216.612 157.271 221.727 159.419 225.018 162.339L226.345 160.843C222.667 157.581 217.146 155.335 209.907 154.016L209.548 155.984ZM225.025 162.345C228.299 165.196 229.971 169.017 230 173.915L232 173.903C231.968 168.498 230.094 164.107 226.338 160.837L225.025 162.345ZM230 173.903C229.971 178.661 228.555 182.758 225.765 186.238L227.326 187.489C230.414 183.636 231.968 179.096 232 173.915L230 173.903ZM225.765 186.239C222.981 189.718 219.149 192.441 214.223 194.388L214.958 196.248C220.154 194.195 224.291 191.282 227.326 187.488L225.765 186.239ZM214.226 194.387C209.332 196.303 203.717 197.273 197.364 197.273V199.273C203.919 199.273 209.789 198.272 214.956 196.249L214.226 194.387ZM197.364 197.273C186.82 197.273 178.705 195.114 172.904 190.917L171.732 192.537C177.992 197.068 186.574 199.273 197.364 199.273V197.273ZM172.906 190.919C167.129 186.717 163.936 181.214 163.268 174.358L161.277 174.552C162.003 181.998 165.507 188.01 171.73 192.536L172.906 190.919ZM162.273 175.455H187.182V173.455H162.273V175.455ZM186.193 174.604C186.568 177.093 187.817 179.057 189.906 180.427L191.003 178.755C189.396 177.701 188.462 176.24 188.171 174.306L186.193 174.604ZM189.922 180.437C192 181.744 194.561 182.364 197.545 182.364V180.364C194.833 180.364 192.667 179.801 190.987 178.744L189.922 180.437ZM197.545 182.364C199.954 182.364 202.023 181.953 203.696 181.065L202.759 179.298C201.462 179.987 199.743 180.364 197.545 180.364V182.364ZM203.689 181.069C205.46 180.148 206.506 178.73 206.545 176.839L204.546 176.797C204.524 177.816 204.024 178.64 202.766 179.295L203.689 181.069ZM206.545 176.795C206.506 175.067 205.61 173.716 204.063 172.781L203.028 174.492C204.087 175.133 204.524 175.903 204.546 176.841L206.545 176.795ZM204.072 172.786C202.635 171.897 200.485 171.234 197.72 170.743L197.37 172.712C200.061 173.19 201.91 173.8 203.019 174.487L204.072 172.786ZM197.719 170.742L185.356 168.561L185.008 170.53L197.372 172.712L197.719 170.742ZM185.354 168.56C178.346 167.338 173.232 165.033 169.883 161.741L168.481 163.168C172.223 166.846 177.775 169.268 185.01 170.531L185.354 168.56ZM169.883 161.741C166.551 158.466 164.88 154.251 164.909 149.006L162.909 148.994C162.877 154.719 164.722 159.473 168.481 163.168L169.883 161.741ZM164.909 148.994C164.88 144.334 166.099 140.452 168.521 137.29L166.933 136.074C164.204 139.639 162.878 143.969 162.909 149.006L164.909 148.994ZM168.52 137.291C170.99 134.075 174.531 131.6 179.206 129.894L178.521 128.015C173.56 129.825 169.677 132.501 166.934 136.073L168.52 137.291ZM179.21 129.893C183.921 128.156 189.541 127.273 196.091 127.273V125.273C189.368 125.273 183.503 126.178 178.518 128.016L179.21 129.893ZM196.091 127.273C206.055 127.273 213.78 129.339 219.371 133.357L220.538 131.733C214.493 127.389 206.308 125.273 196.091 125.273V127.273ZM219.373 133.359C224.962 137.355 227.892 142.854 228.183 149.95L230.181 149.868C229.866 142.177 226.644 136.099 220.536 131.732L219.373 133.359ZM304.432 149.909V150.909H305.474L305.431 149.868L304.432 149.909ZM281.341 149.909L280.345 149.994L280.422 150.909H281.341V149.909ZM279.841 146.227L280.602 145.578L279.841 146.227ZM276.432 143.864L276.043 144.785L276.055 144.79L276.067 144.795L276.432 143.864ZM266.341 144.182L265.887 143.291L266.341 144.182ZM264.068 147.545L265.068 147.575L265.068 147.55L265.068 147.525L264.068 147.545ZM265.386 150.409L264.691 151.128L264.697 151.134L264.703 151.139L265.386 150.409ZM270.795 152.455L270.617 153.438L270.619 153.439L270.795 152.455ZM284.977 155L285.157 154.016L285.154 154.016L284.977 155ZM300.932 161.591L300.268 162.339L300.275 162.345L300.932 161.591ZM306.25 173.909L307.25 173.915L307.25 173.903L306.25 173.909ZM301.795 186.864L301.015 186.238L301.015 186.239L301.795 186.864ZM289.841 195.318L290.206 196.249L290.208 196.248L289.841 195.318ZM247.568 191.727L246.98 192.536L246.982 192.537L247.568 191.727ZM237.523 174.455V173.455H236.421L236.527 174.552L237.523 174.455ZM262.432 174.455L263.421 174.306L263.292 173.455H262.432V174.455ZM265.705 179.591L265.156 180.427L265.164 180.432L265.172 180.437L265.705 179.591ZM278.477 180.182L278.016 179.295L278.009 179.298L278.477 180.182ZM280.795 176.818L281.795 176.839L281.796 176.817L281.795 176.795L280.795 176.818ZM278.795 173.636L278.269 174.487L278.278 174.492L278.795 173.636ZM272.795 171.727L272.97 170.743L272.969 170.742L272.795 171.727ZM260.432 169.545L260.606 168.561L260.604 168.56L260.432 169.545ZM244.432 162.455L245.133 161.741L244.432 162.455ZM239.159 149L240.159 149.006L240.159 148.994L239.159 149ZM242.977 136.682L242.184 136.073L242.183 136.074L242.977 136.682ZM254.114 128.955L254.456 129.894L254.46 129.893L254.114 128.955ZM295.205 132.545L294.621 133.357L294.623 133.359L295.205 132.545ZM304.432 148.909H281.341V150.909H304.432V148.909ZM282.337 149.824C282.199 148.204 281.624 146.777 280.602 145.578L279.08 146.876C279.816 147.739 280.24 148.765 280.345 149.994L282.337 149.824ZM280.602 145.578C279.605 144.41 278.327 143.531 276.796 142.932L276.067 144.795C277.324 145.287 278.319 145.984 279.08 146.876L280.602 145.578ZM276.821 142.942C275.319 142.309 273.67 142 271.886 142V144C273.436 144 274.817 144.267 276.043 144.785L276.821 142.942ZM271.886 142C269.614 142 267.603 142.416 265.887 143.291L266.795 145.073C268.17 144.372 269.856 144 271.886 144V142ZM265.887 143.291C265.005 143.741 264.282 144.319 263.785 145.054C263.282 145.799 263.049 146.649 263.068 147.566L265.068 147.525C265.057 146.988 265.188 146.55 265.442 146.173C265.703 145.787 266.132 145.411 266.795 145.073L265.887 143.291ZM263.069 147.516C263.028 148.89 263.629 150.102 264.691 151.128L266.081 149.69C265.325 148.959 265.048 148.262 265.068 147.575L263.069 147.516ZM264.703 151.139C265.87 152.231 267.929 152.95 270.617 153.438L270.974 151.471C268.329 150.99 266.782 150.345 266.07 149.679L264.703 151.139ZM270.619 153.439L284.801 155.984L285.154 154.016L270.972 151.47L270.619 153.439ZM284.798 155.984C291.862 157.271 296.977 159.419 300.268 162.339L301.595 160.843C297.917 157.581 292.396 155.335 285.157 154.016L284.798 155.984ZM300.275 162.345C303.549 165.196 305.221 169.017 305.25 173.915L307.25 173.903C307.218 168.498 305.345 164.107 301.589 160.837L300.275 162.345ZM305.25 173.903C305.221 178.661 303.805 182.758 301.015 186.238L302.576 187.489C305.664 183.636 307.218 179.096 307.25 173.915L305.25 173.903ZM301.015 186.239C298.231 189.718 294.399 192.441 289.473 194.388L290.208 196.248C295.404 194.195 299.541 191.282 302.576 187.488L301.015 186.239ZM289.476 194.387C284.582 196.303 278.967 197.273 272.614 197.273V199.273C279.169 199.273 285.039 198.272 290.206 196.249L289.476 194.387ZM272.614 197.273C262.07 197.273 253.955 195.114 248.154 190.917L246.982 192.537C253.242 197.068 261.824 199.273 272.614 199.273V197.273ZM248.156 190.919C242.379 186.717 239.186 181.214 238.518 174.358L236.527 174.552C237.253 181.998 240.757 188.01 246.98 192.536L248.156 190.919ZM237.523 175.455H262.432V173.455H237.523V175.455ZM261.443 174.604C261.818 177.093 263.067 179.057 265.156 180.427L266.253 178.755C264.646 177.701 263.712 176.24 263.421 174.306L261.443 174.604ZM265.172 180.437C267.25 181.744 269.811 182.364 272.795 182.364V180.364C270.083 180.364 267.917 179.801 266.237 178.744L265.172 180.437ZM272.795 182.364C275.204 182.364 277.273 181.953 278.946 181.065L278.009 179.298C276.712 179.987 274.993 180.364 272.795 180.364V182.364ZM278.939 181.069C280.71 180.148 281.756 178.73 281.795 176.839L279.796 176.797C279.774 177.816 279.274 178.64 278.016 179.295L278.939 181.069ZM281.795 176.795C281.756 175.067 280.86 173.716 279.313 172.781L278.278 174.492C279.337 175.133 279.774 175.903 279.796 176.841L281.795 176.795ZM279.322 172.786C277.885 171.897 275.735 171.234 272.97 170.743L272.62 172.712C275.311 173.19 277.16 173.8 278.269 174.487L279.322 172.786ZM272.969 170.742L260.606 168.561L260.258 170.53L272.622 172.712L272.969 170.742ZM260.604 168.56C253.596 167.338 248.482 165.033 245.133 161.741L243.731 163.168C247.473 166.846 253.025 169.268 260.26 170.531L260.604 168.56ZM245.133 161.741C241.801 158.466 240.13 154.251 240.159 149.006L238.159 148.994C238.127 154.719 239.972 159.473 243.731 163.168L245.133 161.741ZM240.159 148.994C240.13 144.334 241.349 140.452 243.771 137.29L242.183 136.074C239.454 139.639 238.128 143.969 238.159 149.006L240.159 148.994ZM243.77 137.291C246.24 134.075 249.781 131.6 254.456 129.894L253.771 128.015C248.81 129.825 244.927 132.501 242.184 136.073L243.77 137.291ZM254.46 129.893C259.171 128.156 264.791 127.273 271.341 127.273V125.273C264.618 125.273 258.753 126.178 253.768 128.016L254.46 129.893ZM271.341 127.273C281.305 127.273 289.03 129.339 294.621 133.357L295.788 131.733C289.743 127.389 281.558 125.273 271.341 125.273V127.273ZM294.623 133.359C300.212 137.355 303.142 142.854 303.433 149.95L305.431 149.868C305.116 142.177 301.894 136.099 295.786 131.732L294.623 133.359ZM355.545 193.773L355.056 194.645L355.059 194.647L355.545 193.773ZM343.136 181.136L342.253 181.605L342.254 181.607L343.136 181.136ZM343.136 143.455L344.019 143.925L344.02 143.923L343.136 143.455ZM355.545 130.818L356.032 131.692L356.035 131.69L355.545 130.818ZM394.455 130.818L393.965 131.69L393.968 131.692L394.455 130.818ZM406.864 143.455L405.98 143.923L405.981 143.925L406.864 143.455ZM406.864 181.136L407.746 181.607L407.747 181.605L406.864 181.136ZM394.455 193.773L394.941 194.647L394.944 194.645L394.455 193.773ZM380.682 177.591L381.359 178.326L380.682 177.591ZM384.273 171.5L385.225 171.806L384.273 171.5ZM384.273 152.682L383.321 152.988L383.322 152.991L384.273 152.682ZM380.682 146.591L381.359 145.856L380.682 146.591ZM365.727 152.682L366.678 152.991L366.679 152.988L365.727 152.682ZM365.727 171.5L366.679 171.194L365.727 171.5ZM375 197.273C367.556 197.273 361.247 195.799 356.032 192.899L355.059 194.647C360.632 197.746 367.292 199.273 375 199.273V197.273ZM356.035 192.901C350.806 189.963 346.806 185.889 344.019 180.666L342.254 181.607C345.224 187.172 349.497 191.522 355.056 194.645L356.035 192.901ZM344.02 180.668C341.229 175.41 339.818 169.288 339.818 162.273H337.818C337.818 169.561 339.286 176.014 342.253 181.605L344.02 180.668ZM339.818 162.273C339.818 155.258 341.229 149.152 344.019 143.925L342.254 142.984C339.286 148.545 337.818 154.985 337.818 162.273H339.818ZM344.02 143.923C346.807 138.671 350.805 134.599 356.032 131.692L355.059 129.944C349.498 133.038 345.223 137.39 342.253 142.986L344.02 143.923ZM356.035 131.69C361.25 128.761 367.558 127.273 375 127.273V125.273C367.291 125.273 360.629 126.815 355.056 129.946L356.035 131.69ZM375 127.273C382.442 127.273 388.75 128.761 393.965 131.69L394.944 129.946C389.371 126.815 382.709 125.273 375 125.273V127.273ZM393.968 131.692C399.195 134.599 403.193 138.671 405.98 143.923L407.747 142.986C404.777 137.39 400.502 133.038 394.941 129.944L393.968 131.692ZM405.981 143.925C408.771 149.152 410.182 155.258 410.182 162.273H412.182C412.182 154.985 410.714 148.545 407.746 142.984L405.981 143.925ZM410.182 162.273C410.182 169.288 408.771 175.41 405.98 180.668L407.747 181.605C410.714 176.014 412.182 169.561 412.182 162.273H410.182ZM405.981 180.666C403.194 185.889 399.194 189.963 393.965 192.901L394.944 194.645C400.503 191.522 404.776 187.172 407.746 181.607L405.981 180.666ZM393.968 192.899C388.753 195.799 382.444 197.273 375 197.273V199.273C382.708 199.273 389.368 197.746 394.941 194.647L393.968 192.899ZM375.182 180.727C377.552 180.727 379.628 179.922 381.359 178.326L380.004 176.856C378.645 178.108 377.055 178.727 375.182 178.727V180.727ZM381.359 178.326C383.066 176.754 384.34 174.556 385.225 171.806L383.321 171.194C382.509 173.716 381.389 175.58 380.004 176.856L381.359 178.326ZM385.225 171.806C386.113 169.046 386.545 165.801 386.545 162.091H384.545C384.545 165.654 384.129 168.682 383.321 171.194L385.225 171.806ZM386.545 162.091C386.545 158.352 386.114 155.106 385.224 152.372L383.322 152.991C384.129 155.47 384.545 158.496 384.545 162.091H386.545ZM385.225 152.375C384.34 149.625 383.066 147.428 381.359 145.856L380.004 147.326C381.389 148.602 382.509 150.465 383.321 152.988L385.225 152.375ZM381.359 145.856C379.628 144.259 377.552 143.455 375.182 143.455V145.455C377.055 145.455 378.645 146.074 380.004 147.326L381.359 145.856ZM375.182 143.455C372.707 143.455 370.543 144.248 368.746 145.843L370.073 147.339C371.487 146.085 373.172 145.455 375.182 145.455V143.455ZM368.746 145.843C366.972 147.416 365.663 149.617 364.775 152.375L366.679 152.988C367.488 150.474 368.634 148.615 370.073 147.339L368.746 145.843ZM364.776 152.372C363.886 155.106 363.455 158.352 363.455 162.091H365.455C365.455 158.496 365.871 155.47 366.678 152.991L364.776 152.372ZM363.455 162.091C363.455 165.801 363.887 169.046 364.775 171.806L366.679 171.194C365.871 168.682 365.455 165.654 365.455 162.091H363.455ZM364.775 171.806C365.663 174.565 366.972 176.766 368.746 178.339L370.073 176.843C368.634 175.567 367.488 173.708 366.679 171.194L364.775 171.806ZM368.746 178.339C370.543 179.933 372.707 180.727 375.182 180.727V178.727C373.172 178.727 371.487 178.097 370.073 176.843L368.746 178.339ZM466.636 166.455H465.636L465.636 166.468L466.636 166.455ZM466.636 127.182V126.182H465.636V127.182H466.636ZM491.727 127.182H492.727V126.182H491.727V127.182ZM491.727 197V198H492.727V197H491.727ZM467.909 197H466.909V198H467.909V197ZM467.909 183.727H468.909V182.727H467.909V183.727ZM467.182 183.727V182.727H466.466L466.235 183.405L467.182 183.727ZM459.227 194.182L459.776 195.018L459.78 195.015L459.227 194.182ZM432.909 194.545L432.384 195.397L432.387 195.399L432.909 194.545ZM424.409 185.273L423.517 185.725L423.52 185.731L424.409 185.273ZM421.364 171.727H420.364L420.364 171.733L421.364 171.727ZM421.364 127.182V126.182H420.364V127.182H421.364ZM446.455 127.182H447.455V126.182H446.455V127.182ZM446.455 166.455H445.454L445.455 166.463L446.455 166.455ZM449.091 174.591L448.339 175.25L448.345 175.257L449.091 174.591ZM461.864 176.227L462.365 177.092L462.371 177.089L461.864 176.227ZM465.409 172.409L464.518 171.955L464.515 171.962L465.409 172.409ZM467.636 166.455V127.182H465.636V166.455H467.636ZM466.636 128.182H491.727V126.182H466.636V128.182ZM490.727 127.182V197H492.727V127.182H490.727ZM491.727 196H467.909V198H491.727V196ZM468.909 197V183.727H466.909V197H468.909ZM467.909 182.727H467.182V184.727H467.909V182.727ZM466.235 183.405C464.788 187.658 462.271 190.96 458.674 193.349L459.78 195.015C463.759 192.373 466.545 188.705 468.129 184.049L466.235 183.405ZM458.679 193.346C455.077 195.708 450.775 196.909 445.727 196.909V198.909C451.104 198.909 455.801 197.625 459.776 195.018L458.679 193.346ZM445.727 196.909C441.007 196.909 436.92 195.826 433.431 193.692L432.387 195.399C436.231 197.75 440.69 198.909 445.727 198.909V196.909ZM433.434 193.694C429.958 191.551 427.248 188.599 425.298 184.815L423.52 185.731C425.631 189.826 428.587 193.055 432.384 195.397L433.434 193.694ZM425.301 184.82C423.381 181.039 422.393 176.681 422.364 171.721L420.364 171.733C420.395 176.956 421.437 181.628 423.517 185.725L425.301 184.82ZM422.364 171.727V127.182H420.364V171.727H422.364ZM421.364 128.182H446.455V126.182H421.364V128.182ZM445.455 127.182V166.455H447.455V127.182H445.455ZM445.455 166.463C445.486 170.08 446.409 173.05 448.339 175.25L449.843 173.932C448.318 172.193 447.483 169.738 447.454 166.446L445.455 166.463ZM448.345 175.257C450.329 177.48 453.078 178.545 456.455 178.545V176.545C453.528 176.545 451.368 175.641 449.837 173.925L448.345 175.257ZM456.455 178.545C458.687 178.545 460.671 178.075 462.365 177.092L461.362 175.362C460.026 176.137 458.404 176.545 456.455 176.545V178.545ZM462.371 177.089C464.086 176.08 465.401 174.662 466.304 172.856L464.515 171.962C463.781 173.429 462.732 174.556 461.357 175.365L462.371 177.089ZM466.3 172.863C467.237 171.022 467.668 168.87 467.636 166.441L465.636 166.468C465.665 168.646 465.278 170.463 464.518 171.955L466.3 172.863ZM546.125 127.182H547.125V126.182H546.125V127.182ZM546.125 145.364V146.364H547.125V145.364H546.125ZM500.125 145.364H499.125V146.364H500.125V145.364ZM500.125 127.182V126.182H499.125V127.182H500.125ZM509.034 110.455V109.455H508.034V110.455H509.034ZM534.125 110.455H535.125V109.455H534.125V110.455ZM534.625 177L533.731 177.447L533.735 177.456L533.739 177.464L534.625 177ZM536.17 178.455L535.739 179.357L535.755 179.364L535.772 179.372L536.17 178.455ZM541.489 178.636L541.315 177.652L541.31 177.652L541.489 178.636ZM543.761 178.182L544.741 177.98L544.53 176.959L543.519 177.212L543.761 178.182ZM547.398 195.818L547.683 196.777L548.562 196.515L548.377 195.616L547.398 195.818ZM542.58 197.045L542.354 196.071L542.351 196.072L542.58 197.045ZM535.216 198L535.268 198.999L535.269 198.999L535.216 198ZM520.716 196.227L520.354 197.16L520.361 197.162L520.716 196.227ZM511.898 189.091L511.043 189.61L511.898 189.091ZM509.034 176.909L510.034 176.922V176.909H509.034ZM545.125 127.182V145.364H547.125V127.182H545.125ZM546.125 144.364H500.125V146.364H546.125V144.364ZM501.125 145.364V127.182H499.125V145.364H501.125ZM500.125 128.182H546.125V126.182H500.125V128.182ZM509.034 111.455H534.125V109.455H509.034V111.455ZM533.125 110.455V174.545H535.125V110.455H533.125ZM533.125 174.545C533.125 175.625 533.31 176.606 533.731 177.447L535.519 176.553C535.273 176.06 535.125 175.405 535.125 174.545H533.125ZM533.739 177.464C534.18 178.306 534.863 178.938 535.739 179.357L536.602 177.552C536.084 177.305 535.736 176.966 535.511 176.536L533.739 177.464ZM535.772 179.372C536.637 179.748 537.679 179.909 538.852 179.909V177.909C537.843 177.909 537.098 177.767 536.569 177.537L535.772 179.372ZM538.852 179.909C539.686 179.909 540.627 179.809 541.668 179.62L541.31 177.652C540.35 177.827 539.534 177.909 538.852 177.909V179.909ZM541.662 179.621C542.697 179.439 543.483 179.282 544.004 179.152L543.519 177.212C543.07 177.324 542.341 177.47 541.315 177.652L541.662 179.621ZM542.782 178.384L546.418 196.02L548.377 195.616L544.741 177.98L542.782 178.384ZM547.113 194.86C546.021 195.184 544.438 195.588 542.354 196.071L542.805 198.02C544.903 197.533 546.532 197.119 547.683 196.777L547.113 194.86ZM542.351 196.072C540.364 196.54 537.971 196.852 535.163 197.001L535.269 198.999C538.158 198.845 540.674 198.521 542.809 198.019L542.351 196.072ZM535.163 197.001C529.495 197.3 524.811 196.713 521.071 195.292L520.361 197.162C524.439 198.711 529.421 199.306 535.268 198.999L535.163 197.001ZM521.077 195.295C517.351 193.85 514.596 191.606 512.752 188.572L511.043 189.61C513.139 193.061 516.263 195.574 520.354 197.16L521.077 195.295ZM512.752 188.572C510.904 185.529 509.975 181.666 510.034 176.922L508.034 176.897C507.972 181.91 508.952 186.168 511.043 189.61L512.752 188.572ZM510.034 176.909V110.455H508.034V176.909H510.034ZM163.67 283.773L163.181 284.645L163.184 284.647L163.67 283.773ZM151.261 271.136L150.378 271.605L150.379 271.607L151.261 271.136ZM151.261 233.455L152.144 233.925L152.145 233.923L151.261 233.455ZM163.67 220.818L164.157 221.692L164.16 221.69L163.67 220.818ZM202.58 220.818L202.09 221.69L202.093 221.692L202.58 220.818ZM214.989 233.455L214.105 233.923L214.106 233.925L214.989 233.455ZM214.989 271.136L215.871 271.607L215.872 271.605L214.989 271.136ZM202.58 283.773L203.066 284.647L203.069 284.645L202.58 283.773ZM188.807 267.591L189.484 268.326L188.807 267.591ZM192.398 261.5L193.35 261.806L192.398 261.5ZM192.398 242.682L191.446 242.988L191.447 242.991L192.398 242.682ZM188.807 236.591L189.484 235.856L188.807 236.591ZM173.852 242.682L174.803 242.991L174.804 242.988L173.852 242.682ZM173.852 261.5L174.804 261.194L173.852 261.5ZM183.125 287.273C175.681 287.273 169.372 285.799 164.157 282.899L163.184 284.647C168.757 287.746 175.417 289.273 183.125 289.273V287.273ZM164.16 282.901C158.931 279.963 154.931 275.889 152.144 270.666L150.379 271.607C153.349 277.172 157.622 281.522 163.181 284.645L164.16 282.901ZM152.145 270.668C149.354 265.41 147.943 259.288 147.943 252.273H145.943C145.943 259.561 147.411 266.014 150.378 271.605L152.145 270.668ZM147.943 252.273C147.943 245.258 149.354 239.152 152.144 233.925L150.379 232.984C147.411 238.545 145.943 244.985 145.943 252.273H147.943ZM152.145 233.923C154.932 228.671 158.93 224.599 164.157 221.692L163.184 219.944C157.623 223.038 153.348 227.39 150.378 232.986L152.145 233.923ZM164.16 221.69C169.374 218.761 175.683 217.273 183.125 217.273V215.273C175.416 215.273 168.754 216.815 163.181 219.946L164.16 221.69ZM183.125 217.273C190.567 217.273 196.876 218.761 202.09 221.69L203.069 219.946C197.496 216.815 190.834 215.273 183.125 215.273V217.273ZM202.093 221.692C207.32 224.599 211.318 228.671 214.105 233.923L215.872 232.986C212.902 227.39 208.627 223.038 203.066 219.944L202.093 221.692ZM214.106 233.925C216.896 239.152 218.307 245.258 218.307 252.273H220.307C220.307 244.985 218.839 238.545 215.871 232.984L214.106 233.925ZM218.307 252.273C218.307 259.288 216.896 265.41 214.105 270.668L215.872 271.605C218.839 266.014 220.307 259.561 220.307 252.273H218.307ZM214.106 270.666C211.319 275.889 207.319 279.963 202.09 282.901L203.069 284.645C208.628 281.522 212.901 277.172 215.871 271.607L214.106 270.666ZM202.093 282.899C196.878 285.799 190.569 287.273 183.125 287.273V289.273C190.833 289.273 197.493 287.746 203.066 284.647L202.093 282.899ZM183.307 270.727C185.677 270.727 187.752 269.922 189.484 268.326L188.129 266.856C186.77 268.108 185.18 268.727 183.307 268.727V270.727ZM189.484 268.326C191.191 266.754 192.465 264.556 193.35 261.806L191.446 261.194C190.634 263.716 189.514 265.58 188.129 266.856L189.484 268.326ZM193.35 261.806C194.238 259.046 194.67 255.801 194.67 252.091H192.67C192.67 255.654 192.254 258.682 191.446 261.194L193.35 261.806ZM194.67 252.091C194.67 248.352 194.239 245.106 193.349 242.372L191.447 242.991C192.254 245.47 192.67 248.496 192.67 252.091H194.67ZM193.35 242.375C192.465 239.625 191.191 237.428 189.484 235.856L188.129 237.326C189.514 238.602 190.634 240.465 191.446 242.988L193.35 242.375ZM189.484 235.856C187.752 234.259 185.677 233.455 183.307 233.455V235.455C185.18 235.455 186.77 236.074 188.129 237.326L189.484 235.856ZM183.307 233.455C180.832 233.455 178.668 234.248 176.871 235.843L178.198 237.339C179.612 236.085 181.297 235.455 183.307 235.455V233.455ZM176.871 235.843C175.097 237.416 173.788 239.617 172.9 242.375L174.804 242.988C175.613 240.474 176.759 238.615 178.198 237.339L176.871 235.843ZM172.901 242.372C172.011 245.106 171.58 248.352 171.58 252.091H173.58C173.58 248.496 173.996 245.47 174.803 242.991L172.901 242.372ZM171.58 252.091C171.58 255.801 172.012 259.046 172.9 261.806L174.804 261.194C173.996 258.682 173.58 255.654 173.58 252.091H171.58ZM172.9 261.806C173.788 264.565 175.097 266.766 176.871 268.339L178.198 266.843C176.759 265.567 175.613 263.708 174.804 261.194L172.9 261.806ZM176.871 268.339C178.668 269.933 180.832 270.727 183.307 270.727V268.727C181.297 268.727 179.612 268.097 178.198 266.843L176.871 268.339ZM254.58 247.727L253.58 247.714V247.727H254.58ZM254.58 287V288H255.58V287H254.58ZM229.489 287H228.489V288H229.489V287ZM229.489 217.182V216.182H228.489V217.182H229.489ZM253.307 217.182H254.307V216.182H253.307V217.182ZM253.307 230.455H252.307V231.455H253.307V230.455ZM254.034 230.455V231.455H254.749L254.98 230.779L254.034 230.455ZM262.034 220.045L261.487 219.208L261.484 219.21L262.034 220.045ZM288.352 219.682L287.822 220.53L287.831 220.535L288.352 219.682ZM296.852 228.955L295.961 229.407L295.963 229.413L296.852 228.955ZM299.852 242.455L298.852 242.449V242.455H299.852ZM299.852 287V288H300.852V287H299.852ZM274.761 287H273.761V288H274.761V287ZM274.761 247.727L273.761 247.719V247.727H274.761ZM272.125 239.591L271.379 240.257L271.385 240.263L272.125 239.591ZM259.352 238L259.854 238.865L259.859 238.862L259.352 238ZM255.852 241.818L256.747 242.265L256.75 242.259L255.852 241.818ZM253.58 247.727V287H255.58V247.727H253.58ZM254.58 286H229.489V288H254.58V286ZM230.489 287V217.182H228.489V287H230.489ZM229.489 218.182H253.307V216.182H229.489V218.182ZM252.307 217.182V230.455H254.307V217.182H252.307ZM253.307 231.455H254.034V229.455H253.307V231.455ZM254.98 230.779C256.425 226.559 258.955 223.271 262.584 220.881L261.484 219.21C257.476 221.85 254.673 225.502 253.088 230.131L254.98 230.779ZM262.581 220.883C266.249 218.486 270.539 217.273 275.489 217.273V215.273C270.196 215.273 265.516 216.575 261.487 219.208L262.581 220.883ZM275.489 217.273C280.27 217.273 284.368 218.371 287.822 220.53L288.882 218.834C285.064 216.447 280.586 215.273 275.489 215.273V217.273ZM287.831 220.535C291.335 222.678 294.042 225.628 295.961 229.407L297.744 228.502C295.663 224.402 292.703 221.171 288.874 218.829L287.831 220.535ZM295.963 229.413C297.91 233.189 298.882 237.526 298.852 242.449L300.852 242.461C300.883 237.262 299.855 232.598 297.741 228.496L295.963 229.413ZM298.852 242.455V287H300.852V242.455H298.852ZM299.852 286H274.761V288H299.852V286ZM275.761 287V247.727H273.761V287H275.761ZM275.761 247.736C275.793 244.107 274.868 241.125 272.865 238.919L271.385 240.263C272.958 241.996 273.79 244.438 273.761 247.719L275.761 247.736ZM272.871 238.925C270.887 236.702 268.138 235.636 264.761 235.636V237.636C267.688 237.636 269.848 238.541 271.379 240.257L272.871 238.925ZM264.761 235.636C262.549 235.636 260.566 236.126 258.845 237.138L259.859 238.862C261.229 238.056 262.852 237.636 264.761 237.636V235.636ZM258.851 237.135C257.154 238.119 255.854 239.545 254.955 241.378L256.75 242.259C257.487 240.758 258.52 239.639 259.854 238.865L258.851 237.135ZM254.958 241.371C254.057 243.172 253.611 245.298 253.58 247.714L255.579 247.74C255.608 245.55 256.011 243.737 256.747 242.265L254.958 241.371ZM351.92 283.773L351.431 284.645L351.434 284.647L351.92 283.773ZM339.511 271.136L338.628 271.605L338.629 271.607L339.511 271.136ZM339.511 233.455L340.394 233.925L340.395 233.923L339.511 233.455ZM351.92 220.818L352.407 221.692L352.41 221.69L351.92 220.818ZM390.83 220.818L390.34 221.69L390.343 221.692L390.83 220.818ZM403.239 233.455L402.355 233.923L402.356 233.925L403.239 233.455ZM403.239 271.136L404.121 271.607L404.122 271.605L403.239 271.136ZM390.83 283.773L391.316 284.647L391.319 284.645L390.83 283.773ZM377.057 267.591L377.734 268.326L377.057 267.591ZM380.648 261.5L381.6 261.806L380.648 261.5ZM380.648 242.682L379.696 242.988L379.697 242.991L380.648 242.682ZM377.057 236.591L377.734 235.856L377.057 236.591ZM362.102 242.682L363.053 242.991L363.054 242.988L362.102 242.682ZM362.102 261.5L363.054 261.194L362.102 261.5ZM371.375 287.273C363.931 287.273 357.622 285.799 352.407 282.899L351.434 284.647C357.007 287.746 363.667 289.273 371.375 289.273V287.273ZM352.41 282.901C347.181 279.963 343.181 275.889 340.394 270.666L338.629 271.607C341.599 277.172 345.872 281.522 351.431 284.645L352.41 282.901ZM340.395 270.668C337.604 265.41 336.193 259.288 336.193 252.273H334.193C334.193 259.561 335.661 266.014 338.628 271.605L340.395 270.668ZM336.193 252.273C336.193 245.258 337.604 239.152 340.394 233.925L338.629 232.984C335.661 238.545 334.193 244.985 334.193 252.273H336.193ZM340.395 233.923C343.182 228.671 347.18 224.599 352.407 221.692L351.434 219.944C345.873 223.038 341.598 227.39 338.628 232.986L340.395 233.923ZM352.41 221.69C357.625 218.761 363.933 217.273 371.375 217.273V215.273C363.666 215.273 357.004 216.815 351.431 219.946L352.41 221.69ZM371.375 217.273C378.817 217.273 385.125 218.761 390.34 221.69L391.319 219.946C385.746 216.815 379.084 215.273 371.375 215.273V217.273ZM390.343 221.692C395.57 224.599 399.568 228.671 402.355 233.923L404.122 232.986C401.152 227.39 396.877 223.038 391.316 219.944L390.343 221.692ZM402.356 233.925C405.146 239.152 406.557 245.258 406.557 252.273H408.557C408.557 244.985 407.089 238.545 404.121 232.984L402.356 233.925ZM406.557 252.273C406.557 259.288 405.146 265.41 402.355 270.668L404.122 271.605C407.089 266.014 408.557 259.561 408.557 252.273H406.557ZM402.356 270.666C399.569 275.889 395.569 279.963 390.34 282.901L391.319 284.645C396.878 281.522 401.151 277.172 404.121 271.607L402.356 270.666ZM390.343 282.899C385.128 285.799 378.819 287.273 371.375 287.273V289.273C379.083 289.273 385.743 287.746 391.316 284.647L390.343 282.899ZM371.557 270.727C373.927 270.727 376.003 269.922 377.734 268.326L376.379 266.856C375.02 268.108 373.43 268.727 371.557 268.727V270.727ZM377.734 268.326C379.441 266.754 380.715 264.556 381.6 261.806L379.696 261.194C378.884 263.716 377.764 265.58 376.379 266.856L377.734 268.326ZM381.6 261.806C382.488 259.046 382.92 255.801 382.92 252.091H380.92C380.92 255.654 380.504 258.682 379.696 261.194L381.6 261.806ZM382.92 252.091C382.92 248.352 382.489 245.106 381.599 242.372L379.697 242.991C380.504 245.47 380.92 248.496 380.92 252.091H382.92ZM381.6 242.375C380.715 239.625 379.441 237.428 377.734 235.856L376.379 237.326C377.764 238.602 378.884 240.465 379.696 242.988L381.6 242.375ZM377.734 235.856C376.003 234.259 373.927 233.455 371.557 233.455V235.455C373.43 235.455 375.02 236.074 376.379 237.326L377.734 235.856ZM371.557 233.455C369.082 233.455 366.918 234.248 365.121 235.843L366.448 237.339C367.862 236.085 369.547 235.455 371.557 235.455V233.455ZM365.121 235.843C363.347 237.416 362.038 239.617 361.15 242.375L363.054 242.988C363.863 240.474 365.009 238.615 366.448 237.339L365.121 235.843ZM361.151 242.372C360.261 245.106 359.83 248.352 359.83 252.091H361.83C361.83 248.496 362.246 245.47 363.053 242.991L361.151 242.372ZM359.83 252.091C359.83 255.801 360.262 259.046 361.15 261.806L363.054 261.194C362.246 258.682 361.83 255.654 361.83 252.091H359.83ZM361.15 261.806C362.038 264.565 363.347 266.766 365.121 268.339L366.448 266.843C365.009 265.567 363.863 263.708 363.054 261.194L361.15 261.806ZM365.121 268.339C366.918 269.933 369.082 270.727 371.557 270.727V268.727C369.547 268.727 367.862 268.097 366.448 266.843L365.121 268.339ZM463.011 256.455H462.011L462.011 256.468L463.011 256.455ZM463.011 217.182V216.182H462.011V217.182H463.011ZM488.102 217.182H489.102V216.182H488.102V217.182ZM488.102 287V288H489.102V287H488.102ZM464.284 287H463.284V288H464.284V287ZM464.284 273.727H465.284V272.727H464.284V273.727ZM463.557 273.727V272.727H462.841L462.61 273.405L463.557 273.727ZM455.602 284.182L456.151 285.018L456.155 285.015L455.602 284.182ZM429.284 284.545L428.759 285.397L428.762 285.399L429.284 284.545ZM420.784 275.273L419.892 275.725L419.895 275.731L420.784 275.273ZM417.739 261.727H416.739L416.739 261.733L417.739 261.727ZM417.739 217.182V216.182H416.739V217.182H417.739ZM442.83 217.182H443.83V216.182H442.83V217.182ZM442.83 256.455H441.829L441.83 256.463L442.83 256.455ZM445.466 264.591L444.714 265.25L444.72 265.257L445.466 264.591ZM458.239 266.227L458.74 267.092L458.746 267.089L458.239 266.227ZM461.784 262.409L460.893 261.955L460.89 261.962L461.784 262.409ZM464.011 256.455V217.182H462.011V256.455H464.011ZM463.011 218.182H488.102V216.182H463.011V218.182ZM487.102 217.182V287H489.102V217.182H487.102ZM488.102 286H464.284V288H488.102V286ZM465.284 287V273.727H463.284V287H465.284ZM464.284 272.727H463.557V274.727H464.284V272.727ZM462.61 273.405C461.163 277.658 458.646 280.96 455.049 283.349L456.155 285.015C460.134 282.373 462.92 278.705 464.504 274.049L462.61 273.405ZM455.054 283.346C451.452 285.708 447.15 286.909 442.102 286.909V288.909C447.479 288.909 452.176 287.625 456.151 285.018L455.054 283.346ZM442.102 286.909C437.382 286.909 433.295 285.826 429.806 283.692L428.762 285.399C432.606 287.75 437.065 288.909 442.102 288.909V286.909ZM429.809 283.694C426.333 281.551 423.623 278.599 421.673 274.815L419.895 275.731C422.006 279.826 424.962 283.055 428.759 285.397L429.809 283.694ZM421.676 274.82C419.756 271.039 418.768 266.681 418.739 261.721L416.739 261.733C416.77 266.956 417.812 271.628 419.892 275.725L421.676 274.82ZM418.739 261.727V217.182H416.739V261.727H418.739ZM417.739 218.182H442.83V216.182H417.739V218.182ZM441.83 217.182V256.455H443.83V217.182H441.83ZM441.83 256.463C441.861 260.08 442.784 263.05 444.714 265.25L446.218 263.932C444.693 262.193 443.858 259.738 443.829 256.446L441.83 256.463ZM444.72 265.257C446.704 267.48 449.453 268.545 452.83 268.545V266.545C449.903 266.545 447.743 265.641 446.212 263.925L444.72 265.257ZM452.83 268.545C455.062 268.545 457.046 268.075 458.74 267.092L457.737 265.362C456.401 266.137 454.779 266.545 452.83 266.545V268.545ZM458.746 267.089C460.461 266.08 461.776 264.662 462.679 262.856L460.89 261.962C460.156 263.429 459.107 264.556 457.732 265.365L458.746 267.089ZM462.675 262.863C463.612 261.022 464.043 258.87 464.011 256.441L462.011 256.468C462.04 258.646 461.653 260.463 460.893 261.955L462.675 262.863ZM500.864 287H499.864V288H500.864V287ZM500.864 217.182V216.182H499.864V217.182H500.864ZM525.227 217.182H526.227V216.182H525.227V217.182ZM525.227 230.455H524.227V231.455H525.227V230.455ZM525.955 230.455V231.455H526.728L526.923 230.706L525.955 230.455ZM532 219.682L531.368 218.907L531.364 218.91L532 219.682ZM545 216.545L544.831 217.531L544.847 217.534L544.862 217.536L545 216.545ZM548.136 217.227H549.136V216.485L548.426 216.27L548.136 217.227ZM548.136 238.636L547.813 239.583L549.136 240.035V238.636H548.136ZM543.545 237.682L543.661 236.689L543.545 237.682ZM532.227 239.045L532.718 239.917L532.722 239.915L532.227 239.045ZM527.636 243.682L528.505 244.177L528.509 244.171L527.636 243.682ZM525.955 287V288H526.955V287H525.955ZM501.864 287V217.182H499.864V287H501.864ZM500.864 218.182H525.227V216.182H500.864V218.182ZM524.227 217.182V230.455H526.227V217.182H524.227ZM525.227 231.455H525.955V229.455H525.227V231.455ZM526.923 230.706C528.164 225.918 530.097 222.546 532.636 220.454L531.364 218.91C528.388 221.363 526.291 225.173 524.987 230.204L526.923 230.706ZM532.632 220.457C535.234 218.335 538.267 217.273 541.773 217.273V215.273C537.824 215.273 534.341 216.483 531.368 218.907L532.632 220.457ZM541.773 217.273C542.808 217.273 543.827 217.359 544.831 217.531L545.169 215.56C544.052 215.368 542.919 215.273 541.773 215.273V217.273ZM544.862 217.536C545.904 217.681 546.899 217.897 547.846 218.184L548.426 216.27C547.374 215.951 546.277 215.713 545.138 215.555L544.862 217.536ZM547.136 217.227V238.636H549.136V217.227H547.136ZM548.46 237.69C547.129 237.236 545.525 236.906 543.661 236.689L543.43 238.675C545.203 238.882 546.659 239.188 547.813 239.583L548.46 237.69ZM543.661 236.689C541.819 236.474 540.217 236.364 538.864 236.364V238.364C540.116 238.364 541.636 238.466 543.43 238.675L543.661 236.689ZM538.864 236.364C536.25 236.364 533.865 236.962 531.733 238.176L532.722 239.915C534.529 238.886 536.568 238.364 538.864 238.364V236.364ZM531.737 238.174C529.633 239.358 527.972 241.038 526.764 243.193L528.509 244.171C529.543 242.326 530.943 240.915 532.718 239.917L531.737 238.174ZM526.767 243.187C525.546 245.332 524.955 247.827 524.955 250.636H526.955C526.955 248.112 527.484 245.971 528.505 244.177L526.767 243.187ZM524.955 250.636V287H526.955V250.636H524.955ZM525.955 286H500.864V288H525.955V286Z" fill="#F05006" mask="url(#path-1-outside-1_83_293)"/>
</svg>
