<svg width="550" height="300" viewBox="0 0 550 300" fill="none" xmlns="http://www.w3.org/2000/svg">
<mask id="path-1-outside-1_154_276" maskUnits="userSpaceOnUse" x="1" y="12" width="427" height="278" fill="black">
<rect fill="white" x="1" y="12" width="427" height="278"/>
<path d="M48 37.1818V55.3636H2V37.1818H48ZM10.9091 20.4545H36V84.5455C36 85.5152 36.1667 86.3333 36.5 87C36.8333 87.6364 37.3485 88.1212 38.0455 88.4545C38.7424 88.7576 39.6364 88.9091 40.7273 88.9091C41.4848 88.9091 42.3636 88.8182 43.3636 88.6364C44.3939 88.4545 45.1515 88.303 45.6364 88.1818L49.2727 105.818C48.1515 106.152 46.5455 106.561 44.4545 107.045C42.3939 107.53 39.9394 107.848 37.0909 108C31.3333 108.303 26.5 107.712 22.5909 106.227C18.6818 104.712 15.7424 102.333 13.7727 99.0909C11.803 95.8485 10.8485 91.7879 10.9091 86.9091V20.4545ZM77.6932 108.091C73.2386 108.091 69.2992 107.364 65.875 105.909C62.4811 104.424 59.8144 102.182 57.875 99.1818C55.9356 96.1818 54.9659 92.3636 54.9659 87.7273C54.9659 83.9091 55.6174 80.6515 56.9205 77.9545C58.2235 75.2273 60.0417 73 62.375 71.2727C64.7083 69.5455 67.4205 68.2273 70.5114 67.3182C73.6326 66.4091 76.9962 65.8182 80.6023 65.5455C84.5114 65.2424 87.6477 64.8788 90.0114 64.4545C92.4053 64 94.1326 63.3788 95.1932 62.5909C96.2538 61.7727 96.7841 60.697 96.7841 59.3636V59.1818C96.7841 57.3636 96.0871 55.9697 94.6932 55C93.2992 54.0303 91.5114 53.5455 89.3295 53.5455C86.9356 53.5455 84.9811 54.0758 83.4659 55.1364C81.9811 56.1667 81.0871 57.7576 80.7841 59.9091H57.6932C57.9962 55.6667 59.3447 51.7576 61.7386 48.1818C64.1629 44.5758 67.6932 41.697 72.3295 39.5455C76.9659 37.3636 82.7538 36.2727 89.6932 36.2727C94.6932 36.2727 99.178 36.8636 103.148 38.0455C107.117 39.197 110.496 40.8182 113.284 42.9091C116.072 44.9697 118.193 47.3939 119.648 50.1818C121.133 52.9394 121.875 55.9394 121.875 59.1818V107H98.4205V97.1818H97.875C96.4811 99.7879 94.7841 101.894 92.7841 103.5C90.8144 105.106 88.5568 106.273 86.0114 107C83.4962 107.727 80.7235 108.091 77.6932 108.091ZM85.875 92.2727C87.7841 92.2727 89.572 91.8788 91.2386 91.0909C92.9356 90.303 94.3144 89.1667 95.375 87.6818C96.4356 86.197 96.9659 84.3939 96.9659 82.2727V76.4545C96.2992 76.7273 95.5871 76.9848 94.8295 77.2273C94.1023 77.4697 93.3144 77.697 92.4659 77.9091C91.6477 78.1212 90.7689 78.3182 89.8295 78.5C88.9205 78.6818 87.9659 78.8485 86.9659 79C85.0265 79.303 83.4356 79.803 82.1932 80.5C80.9811 81.1667 80.072 82 79.4659 83C78.8902 83.9697 78.6023 85.0606 78.6023 86.2727C78.6023 88.2121 79.2841 89.697 80.6477 90.7273C82.0114 91.7576 83.7538 92.2727 85.875 92.2727ZM156.409 90.4545L156.591 60.6364H159.864L176.773 37.1818H204.955L176.591 73.7273H169.5L156.409 90.4545ZM133.864 107V13.9091H158.955V107H133.864ZM176.955 107L160.955 79.3636L177.318 61.5455L205.682 107H176.955ZM242.068 108.273C234.614 108.273 228.189 106.848 222.795 104C217.432 101.121 213.295 97 210.386 91.6364C207.508 86.2424 206.068 79.7879 206.068 72.2727C206.068 65.0606 207.523 58.7576 210.432 53.3636C213.341 47.9697 217.447 43.7727 222.75 40.7727C228.053 37.7727 234.311 36.2727 241.523 36.2727C246.795 36.2727 251.568 37.0909 255.841 38.7273C260.114 40.3636 263.765 42.7424 266.795 45.8636C269.826 48.9545 272.159 52.7121 273.795 57.1364C275.432 61.5606 276.25 66.5455 276.25 72.0909V77.9091H213.886V64.0909H253.159C253.129 62.0909 252.614 60.3333 251.614 58.8182C250.644 57.2727 249.326 56.0758 247.659 55.2273C246.023 54.3485 244.159 53.9091 242.068 53.9091C240.038 53.9091 238.174 54.3485 236.477 55.2273C234.78 56.0758 233.417 57.2576 232.386 58.7727C231.386 60.2879 230.856 62.0606 230.795 64.0909V79C230.795 81.2424 231.265 83.2424 232.205 85C233.144 86.7576 234.492 88.1364 236.25 89.1364C238.008 90.1364 240.129 90.6364 242.614 90.6364C244.341 90.6364 245.917 90.3939 247.341 89.9091C248.795 89.4242 250.038 88.7273 251.068 87.8182C252.098 86.8788 252.856 85.7576 253.341 84.4545H276.25C275.462 89.303 273.598 93.5152 270.659 97.0909C267.72 100.636 263.826 103.394 258.977 105.364C254.159 107.303 248.523 108.273 242.068 108.273ZM331.443 108.091C326.989 108.091 323.049 107.364 319.625 105.909C316.231 104.424 313.564 102.182 311.625 99.1818C309.686 96.1818 308.716 92.3636 308.716 87.7273C308.716 83.9091 309.367 80.6515 310.67 77.9545C311.973 75.2273 313.792 73 316.125 71.2727C318.458 69.5455 321.17 68.2273 324.261 67.3182C327.383 66.4091 330.746 65.8182 334.352 65.5455C338.261 65.2424 341.398 64.8788 343.761 64.4545C346.155 64 347.883 63.3788 348.943 62.5909C350.004 61.7727 350.534 60.697 350.534 59.3636V59.1818C350.534 57.3636 349.837 55.9697 348.443 55C347.049 54.0303 345.261 53.5455 343.08 53.5455C340.686 53.5455 338.731 54.0758 337.216 55.1364C335.731 56.1667 334.837 57.7576 334.534 59.9091H311.443C311.746 55.6667 313.095 51.7576 315.489 48.1818C317.913 44.5758 321.443 41.697 326.08 39.5455C330.716 37.3636 336.504 36.2727 343.443 36.2727C348.443 36.2727 352.928 36.8636 356.898 38.0455C360.867 39.197 364.246 40.8182 367.034 42.9091C369.822 44.9697 371.943 47.3939 373.398 50.1818C374.883 52.9394 375.625 55.9394 375.625 59.1818V107H352.17V97.1818H351.625C350.231 99.7879 348.534 101.894 346.534 103.5C344.564 105.106 342.307 106.273 339.761 107C337.246 107.727 334.473 108.091 331.443 108.091ZM339.625 92.2727C341.534 92.2727 343.322 91.8788 344.989 91.0909C346.686 90.303 348.064 89.1667 349.125 87.6818C350.186 86.197 350.716 84.3939 350.716 82.2727V76.4545C350.049 76.7273 349.337 76.9848 348.58 77.2273C347.852 77.4697 347.064 77.697 346.216 77.9091C345.398 78.1212 344.519 78.3182 343.58 78.5C342.67 78.6818 341.716 78.8485 340.716 79C338.777 79.303 337.186 79.803 335.943 80.5C334.731 81.1667 333.822 82 333.216 83C332.64 83.9697 332.352 85.0606 332.352 86.2727C332.352 88.2121 333.034 89.697 334.398 90.7273C335.761 91.7576 337.504 92.2727 339.625 92.2727ZM31.4545 103.909V197H6.36364V103.909H31.4545ZM77.875 198.273C70.2992 198.273 63.8144 196.773 58.4205 193.773C53.0265 190.742 48.8902 186.53 46.0114 181.136C43.1326 175.712 41.6932 169.424 41.6932 162.273C41.6932 155.121 43.1326 148.848 46.0114 143.455C48.8902 138.03 53.0265 133.818 58.4205 130.818C63.8144 127.788 70.2992 126.273 77.875 126.273C85.4508 126.273 91.9356 127.788 97.3295 130.818C102.723 133.818 106.86 138.03 109.739 143.455C112.617 148.848 114.057 155.121 114.057 162.273C114.057 169.424 112.617 175.712 109.739 181.136C106.86 186.53 102.723 190.742 97.3295 193.773C91.9356 196.773 85.4508 198.273 77.875 198.273ZM78.0568 179.727C80.178 179.727 82.0114 179.015 83.5568 177.591C85.1023 176.167 86.2992 174.136 87.1477 171.5C87.9962 168.864 88.4205 165.727 88.4205 162.091C88.4205 158.424 87.9962 155.288 87.1477 152.682C86.2992 150.045 85.1023 148.015 83.5568 146.591C82.0114 145.167 80.178 144.455 78.0568 144.455C75.8144 144.455 73.8902 145.167 72.2841 146.591C70.678 148.015 69.4508 150.045 68.6023 152.682C67.7538 155.288 67.3295 158.424 67.3295 162.091C67.3295 165.727 67.7538 168.864 68.6023 171.5C69.4508 174.136 70.678 176.167 72.2841 177.591C73.8902 179.015 75.8144 179.727 78.0568 179.727ZM157.875 198.273C150.299 198.273 143.814 196.773 138.42 193.773C133.027 190.742 128.89 186.53 126.011 181.136C123.133 175.712 121.693 169.424 121.693 162.273C121.693 155.121 123.133 148.848 126.011 143.455C128.89 138.03 133.027 133.818 138.42 130.818C143.814 127.788 150.299 126.273 157.875 126.273C165.451 126.273 171.936 127.788 177.33 130.818C182.723 133.818 186.86 138.03 189.739 143.455C192.617 148.848 194.057 155.121 194.057 162.273C194.057 169.424 192.617 175.712 189.739 181.136C186.86 186.53 182.723 190.742 177.33 193.773C171.936 196.773 165.451 198.273 157.875 198.273ZM158.057 179.727C160.178 179.727 162.011 179.015 163.557 177.591C165.102 176.167 166.299 174.136 167.148 171.5C167.996 168.864 168.42 165.727 168.42 162.091C168.42 158.424 167.996 155.288 167.148 152.682C166.299 150.045 165.102 148.015 163.557 146.591C162.011 145.167 160.178 144.455 158.057 144.455C155.814 144.455 153.89 145.167 152.284 146.591C150.678 148.015 149.451 150.045 148.602 152.682C147.754 155.288 147.33 158.424 147.33 162.091C147.33 165.727 147.754 168.864 148.602 171.5C149.451 174.136 150.678 176.167 152.284 177.591C153.89 179.015 155.814 179.727 158.057 179.727ZM226.784 180.455L226.966 150.636H230.239L247.148 127.182H275.33L246.966 163.727H239.875L226.784 180.455ZM204.239 197V103.909H229.33V197H204.239ZM247.33 197L231.33 169.364L247.693 151.545L276.057 197H247.33ZM326.818 198.091C322.364 198.091 318.424 197.364 315 195.909C311.606 194.424 308.939 192.182 307 189.182C305.061 186.182 304.091 182.364 304.091 177.727C304.091 173.909 304.742 170.652 306.045 167.955C307.348 165.227 309.167 163 311.5 161.273C313.833 159.545 316.545 158.227 319.636 157.318C322.758 156.409 326.121 155.818 329.727 155.545C333.636 155.242 336.773 154.879 339.136 154.455C341.53 154 343.258 153.379 344.318 152.591C345.379 151.773 345.909 150.697 345.909 149.364V149.182C345.909 147.364 345.212 145.97 343.818 145C342.424 144.03 340.636 143.545 338.455 143.545C336.061 143.545 334.106 144.076 332.591 145.136C331.106 146.167 330.212 147.758 329.909 149.909H306.818C307.121 145.667 308.47 141.758 310.864 138.182C313.288 134.576 316.818 131.697 321.455 129.545C326.091 127.364 331.879 126.273 338.818 126.273C343.818 126.273 348.303 126.864 352.273 128.045C356.242 129.197 359.621 130.818 362.409 132.909C365.197 134.97 367.318 137.394 368.773 140.182C370.258 142.939 371 145.939 371 149.182V197H347.545V187.182H347C345.606 189.788 343.909 191.894 341.909 193.5C339.939 195.106 337.682 196.273 335.136 197C332.621 197.727 329.848 198.091 326.818 198.091ZM335 182.273C336.909 182.273 338.697 181.879 340.364 181.091C342.061 180.303 343.439 179.167 344.5 177.682C345.561 176.197 346.091 174.394 346.091 172.273V166.455C345.424 166.727 344.712 166.985 343.955 167.227C343.227 167.47 342.439 167.697 341.591 167.909C340.773 168.121 339.894 168.318 338.955 168.5C338.045 168.682 337.091 168.848 336.091 169C334.152 169.303 332.561 169.803 331.318 170.5C330.106 171.167 329.197 172 328.591 173C328.015 173.97 327.727 175.061 327.727 176.273C327.727 178.212 328.409 179.697 329.773 180.727C331.136 181.758 332.879 182.273 335 182.273ZM424.625 127.182V145.364H378.625V127.182H424.625ZM387.534 110.455H412.625V174.545C412.625 175.515 412.792 176.333 413.125 177C413.458 177.636 413.973 178.121 414.67 178.455C415.367 178.758 416.261 178.909 417.352 178.909C418.11 178.909 418.989 178.818 419.989 178.636C421.019 178.455 421.777 178.303 422.261 178.182L425.898 195.818C424.777 196.152 423.17 196.561 421.08 197.045C419.019 197.53 416.564 197.848 413.716 198C407.958 198.303 403.125 197.712 399.216 196.227C395.307 194.712 392.367 192.333 390.398 189.091C388.428 185.848 387.473 181.788 387.534 176.909V110.455ZM40 288.273C32.4242 288.273 25.9394 286.773 20.5455 283.773C15.1515 280.742 11.0152 276.53 8.13636 271.136C5.25758 265.712 3.81818 259.424 3.81818 252.273C3.81818 245.121 5.25758 238.848 8.13636 233.455C11.0152 228.03 15.1515 223.818 20.5455 220.818C25.9394 217.788 32.4242 216.273 40 216.273C47.5758 216.273 54.0606 217.788 59.4545 220.818C64.8485 223.818 68.9849 228.03 71.8636 233.455C74.7424 238.848 76.1818 245.121 76.1818 252.273C76.1818 259.424 74.7424 265.712 71.8636 271.136C68.9849 276.53 64.8485 280.742 59.4545 283.773C54.0606 286.773 47.5758 288.273 40 288.273ZM40.1818 269.727C42.303 269.727 44.1364 269.015 45.6818 267.591C47.2273 266.167 48.4242 264.136 49.2727 261.5C50.1212 258.864 50.5455 255.727 50.5455 252.091C50.5455 248.424 50.1212 245.288 49.2727 242.682C48.4242 240.045 47.2273 238.015 45.6818 236.591C44.1364 235.167 42.303 234.455 40.1818 234.455C37.9394 234.455 36.0152 235.167 34.4091 236.591C32.803 238.015 31.5758 240.045 30.7273 242.682C29.8788 245.288 29.4545 248.424 29.4545 252.091C29.4545 255.727 29.8788 258.864 30.7273 261.5C31.5758 264.136 32.803 266.167 34.4091 267.591C36.0152 269.015 37.9394 269.727 40.1818 269.727ZM131.636 256.455V217.182H156.727V287H132.909V273.727H132.182C130.667 278.182 128.015 281.667 124.227 284.182C120.439 286.667 115.939 287.909 110.727 287.909C105.848 287.909 101.576 286.788 97.9091 284.545C94.2727 282.303 91.4394 279.212 89.4091 275.273C87.4091 271.333 86.3939 266.818 86.3636 261.727V217.182H111.455V256.455C111.485 259.909 112.364 262.621 114.091 264.591C115.848 266.561 118.303 267.545 121.455 267.545C123.545 267.545 125.348 267.106 126.864 266.227C128.409 265.318 129.591 264.045 130.409 262.409C131.258 260.742 131.667 258.758 131.636 256.455ZM169.489 287V217.182H193.852V230.455H194.58C195.852 225.545 197.867 221.955 200.625 219.682C203.413 217.409 206.67 216.273 210.398 216.273C211.489 216.273 212.564 216.364 213.625 216.545C214.716 216.697 215.761 216.924 216.761 217.227V238.636C215.519 238.212 213.989 237.894 212.17 237.682C210.352 237.47 208.792 237.364 207.489 237.364C205.034 237.364 202.822 237.924 200.852 239.045C198.913 240.136 197.383 241.682 196.261 243.682C195.14 245.652 194.58 247.97 194.58 250.636V287H169.489Z"/>
</mask>
<path d="M48 37.1818H49V36.1818H48V37.1818ZM48 55.3636V56.3636H49V55.3636H48ZM2 55.3636H1V56.3636H2V55.3636ZM2 37.1818V36.1818H1V37.1818H2ZM10.9091 20.4545V19.4545H9.90909V20.4545H10.9091ZM36 20.4545H37V19.4545H36V20.4545ZM36.5 87L35.6056 87.4472L35.6098 87.4557L35.6142 87.464L36.5 87ZM38.0455 88.4545L37.614 89.3567L37.6302 89.3644L37.6467 89.3716L38.0455 88.4545ZM43.3636 88.6364L43.1898 87.6516L43.1847 87.6525L43.3636 88.6364ZM45.6364 88.1818L46.6158 87.9799L46.4052 86.9588L45.3938 87.2117L45.6364 88.1818ZM49.2727 105.818L49.5577 106.777L50.4375 106.515L50.2521 105.616L49.2727 105.818ZM44.4545 107.045L44.2287 106.071L44.2255 106.072L44.4545 107.045ZM37.0909 108L37.1435 108.999L37.144 108.999L37.0909 108ZM22.5909 106.227L22.2295 107.16L22.2358 107.162L22.5909 106.227ZM13.7727 99.0909L12.9181 99.6101L13.7727 99.0909ZM10.9091 86.9091L11.9091 86.9215V86.9091H10.9091ZM47 37.1818V55.3636H49V37.1818H47ZM48 54.3636H2V56.3636H48V54.3636ZM3 55.3636V37.1818H1V55.3636H3ZM2 38.1818H48V36.1818H2V38.1818ZM10.9091 21.4545H36V19.4545H10.9091V21.4545ZM35 20.4545V84.5455H37V20.4545H35ZM35 84.5455C35 85.6254 35.1851 86.6063 35.6056 87.4472L37.3944 86.5528C37.1482 86.0603 37 85.405 37 84.5455H35ZM35.6142 87.464C36.0554 88.3064 36.7378 88.9377 37.614 89.3567L38.4769 87.5524C37.9591 87.3048 37.6112 86.9663 37.3858 86.536L35.6142 87.464ZM37.6467 89.3716C38.5118 89.7477 39.5543 89.9091 40.7273 89.9091V87.9091C39.7184 87.9091 38.9731 87.7674 38.4442 87.5375L37.6467 89.3716ZM40.7273 89.9091C41.5612 89.9091 42.5021 89.8094 43.5425 89.6202L43.1847 87.6525C42.2252 87.827 41.4085 87.9091 40.7273 87.9091V89.9091ZM43.5374 89.6211C44.5716 89.4386 45.3581 89.2822 45.8789 89.152L45.3938 87.2117C44.945 87.3239 44.2163 87.4704 43.1898 87.6516L43.5374 89.6211ZM44.657 88.3838L48.2933 106.02L50.2521 105.616L46.6158 87.9799L44.657 88.3838ZM48.9878 104.86C47.8959 105.184 46.3131 105.588 44.2287 106.071L44.6804 108.02C46.7778 107.533 48.4071 107.119 49.5577 106.777L48.9878 104.86ZM44.2255 106.072C42.2386 106.54 39.846 106.852 37.0378 107.001L37.144 108.999C40.0328 108.845 42.5493 108.521 44.6836 108.019L44.2255 106.072ZM37.0384 107.001C31.3703 107.3 26.6858 106.713 22.946 105.292L22.2358 107.162C26.3142 108.711 31.2963 109.306 37.1435 108.999L37.0384 107.001ZM22.9523 105.295C19.2259 103.85 16.4706 101.606 14.6274 98.5717L12.9181 99.6101C15.0143 103.061 18.1378 105.574 22.2295 107.16L22.9523 105.295ZM14.6274 98.5717C12.7791 95.5292 11.8501 91.6658 11.909 86.9215L9.90917 86.8967C9.84689 91.9099 10.8269 96.1677 12.9181 99.6101L14.6274 98.5717ZM11.9091 86.9091V20.4545H9.90909V86.9091H11.9091ZM65.875 105.909L65.4742 106.825L65.484 106.829L65.875 105.909ZM57.875 99.1818L57.0352 99.7247L57.875 99.1818ZM56.9205 77.9545L57.8209 78.3896L57.8228 78.3856L56.9205 77.9545ZM62.375 71.2727L62.97 72.0765L62.375 71.2727ZM70.5114 67.3182L70.2317 66.3581L70.2292 66.3588L70.5114 67.3182ZM80.6023 65.5455L80.6777 66.5426L80.6796 66.5425L80.6023 65.5455ZM90.0114 64.4545L90.188 65.4389L90.1979 65.437L90.0114 64.4545ZM95.1932 62.5909L95.7895 63.3937L95.7968 63.3882L95.804 63.3827L95.1932 62.5909ZM94.6932 55L94.1221 55.8209L94.6932 55ZM83.4659 55.1364L84.036 55.958L84.0394 55.9556L83.4659 55.1364ZM80.7841 59.9091V60.9091H81.6531L81.7743 60.0486L80.7841 59.9091ZM57.6932 59.9091L56.6957 59.8378L56.6192 60.9091H57.6932V59.9091ZM61.7386 48.1818L60.9087 47.6239L60.9077 47.6255L61.7386 48.1818ZM72.3295 39.5455L72.7505 40.4526L72.7553 40.4503L72.3295 39.5455ZM103.148 38.0455L102.862 39.0039L102.869 39.0059L103.148 38.0455ZM113.284 42.9091L112.684 43.7091L112.69 43.7133L113.284 42.9091ZM119.648 50.1818L118.761 50.6444L118.767 50.6559L119.648 50.1818ZM121.875 107V108H122.875V107H121.875ZM98.4205 107H97.4205V108H98.4205V107ZM98.4205 97.1818H99.4205V96.1818H98.4205V97.1818ZM97.875 97.1818V96.1818H97.2758L96.9932 96.7102L97.875 97.1818ZM92.7841 103.5L92.1579 102.72L92.1522 102.725L92.7841 103.5ZM86.0114 107L85.7366 106.038L85.7336 106.039L86.0114 107ZM91.2386 91.0909L90.8175 90.1839L90.8113 90.1868L91.2386 91.0909ZM95.375 87.6818L94.5613 87.1006L95.375 87.6818ZM96.9659 76.4545H97.9659V74.965L96.5873 75.529L96.9659 76.4545ZM94.8295 77.2273L94.5247 76.2748L94.5133 76.2786L94.8295 77.2273ZM92.4659 77.9091L92.2234 76.9389L92.215 76.9411L92.4659 77.9091ZM89.8295 78.5L89.6395 77.5182L89.6334 77.5194L89.8295 78.5ZM86.9659 79L86.8161 78.0113L86.8115 78.012L86.9659 79ZM82.1932 80.5L82.6751 81.3762L82.6824 81.3721L82.1932 80.5ZM79.4659 83L78.6107 82.4817L78.6061 82.4895L79.4659 83ZM80.6477 90.7273L81.2506 89.9294L80.6477 90.7273ZM77.6932 107.091C73.347 107.091 69.5447 106.381 66.266 104.989L65.484 106.829C69.0538 108.346 73.1303 109.091 77.6932 109.091V107.091ZM66.2758 104.993C63.0546 103.584 60.5436 101.468 58.7148 98.6389L57.0352 99.7247C59.0852 102.896 61.9075 105.265 65.4742 106.825L66.2758 104.993ZM58.7148 98.6389C56.907 95.8424 55.9659 92.2276 55.9659 87.7273H53.9659C53.9659 92.4997 54.9643 96.5212 57.0352 99.7247L58.7148 98.6389ZM55.9659 87.7273C55.9659 84.0197 56.5988 80.9189 57.8209 78.3896L56.02 77.5195C54.636 80.3841 53.9659 83.7985 53.9659 87.7273H55.9659ZM57.8228 78.3856C59.0583 75.7996 60.7735 73.7024 62.97 72.0765L61.78 70.469C59.3098 72.2976 57.3886 74.655 56.0182 77.5234L57.8228 78.3856ZM62.97 72.0765C65.1992 70.4263 67.8029 69.1571 70.7935 68.2775L70.2292 66.3588C67.038 67.2974 64.2175 68.6646 61.78 70.469L62.97 72.0765ZM70.791 68.2783C73.8387 67.3906 77.1332 66.8107 80.6777 66.5426L80.5269 64.5483C76.8592 64.8257 73.4265 65.4276 70.2317 66.3581L70.791 68.2783ZM80.6796 66.5425C84.604 66.2382 87.7776 65.8715 90.188 65.4388L89.8347 63.4703C87.5179 63.8861 84.4187 64.2466 80.525 64.5484L80.6796 66.5425ZM90.1979 65.437C92.6354 64.9742 94.5441 64.3188 95.7895 63.3937L94.5969 61.7882C93.7211 62.4387 92.1753 63.0258 89.8248 63.4721L90.1979 65.437ZM95.804 63.3827C97.1087 62.3762 97.7841 61.0086 97.7841 59.3636H95.7841C95.7841 60.3853 95.3989 61.1693 94.5824 61.7991L95.804 63.3827ZM97.7841 59.3636V59.1818H95.7841V59.3636H97.7841ZM97.7841 59.1818C97.7841 57.0636 96.9486 55.3508 95.2643 54.1791L94.1221 55.8209C95.2257 56.5886 95.7841 57.6637 95.7841 59.1818H97.7841ZM95.2643 54.1791C93.6607 53.0636 91.6575 52.5455 89.3295 52.5455V54.5455C91.3652 54.5455 92.9378 54.997 94.1221 55.8209L95.2643 54.1791ZM89.3295 52.5455C86.7906 52.5455 84.619 53.1085 82.8924 54.3171L84.0394 55.9556C85.3431 55.043 87.0807 54.5455 89.3295 54.5455V52.5455ZM82.8958 54.3148C81.1362 55.5357 80.1273 57.4026 79.7939 59.7696L81.7743 60.0486C82.047 58.1126 82.8259 56.7976 84.036 55.958L82.8958 54.3148ZM80.7841 58.9091H57.6932V60.9091H80.7841V58.9091ZM58.6906 59.9803C58.9811 55.9135 60.2712 52.1712 62.5696 48.7381L60.9077 47.6255C58.4182 51.3439 57.0113 55.4199 56.6957 59.8378L58.6906 59.9803ZM62.5685 48.7397C64.8741 45.3101 68.2502 42.5409 72.7505 40.4525L71.9086 38.6384C67.1361 40.853 63.4516 43.8414 60.9087 47.6239L62.5685 48.7397ZM72.7553 40.4503C77.2201 38.3492 82.8516 37.2727 89.6932 37.2727V35.2727C82.656 35.2727 76.7117 36.3781 71.9037 38.6406L72.7553 40.4503ZM89.6932 37.2727C94.6159 37.2727 99.0021 37.8546 102.862 39.0039L103.433 37.087C99.3539 35.8726 94.7705 35.2727 89.6932 35.2727V37.2727ZM102.869 39.0059C106.744 40.1299 110.009 41.7027 112.684 43.7091L113.884 42.1091C110.984 39.9337 107.491 38.2641 103.426 37.085L102.869 39.0059ZM112.69 43.7133C115.368 45.693 117.384 48.0044 118.761 50.6444L120.534 49.7192C119.003 46.7835 116.776 44.2464 113.878 42.1049L112.69 43.7133ZM118.767 50.6559C120.171 53.2625 120.875 56.0988 120.875 59.1818H122.875C122.875 55.78 122.094 52.6162 120.528 49.7077L118.767 50.6559ZM120.875 59.1818V107H122.875V59.1818H120.875ZM121.875 106H98.4205V108H121.875V106ZM99.4205 107V97.1818H97.4205V107H99.4205ZM98.4205 96.1818H97.875V98.1818H98.4205V96.1818ZM96.9932 96.7102C95.6533 99.2153 94.0381 101.211 92.158 102.72L93.4102 104.28C95.5301 102.577 97.3089 100.36 98.7568 97.6535L96.9932 96.7102ZM92.1522 102.725C90.292 104.242 88.1572 105.347 85.7366 106.038L86.2861 107.962C88.9565 107.199 91.3368 105.97 93.416 104.275L92.1522 102.725ZM85.7336 106.039C83.3216 106.737 80.6439 107.091 77.6932 107.091V109.091C80.803 109.091 83.6708 108.718 86.2891 107.961L85.7336 106.039ZM85.875 93.2727C87.9265 93.2727 89.8609 92.8483 91.666 91.995L90.8113 90.1868C89.283 90.9093 87.6417 91.2727 85.875 91.2727V93.2727ZM91.6597 91.9979C93.5094 91.1391 95.025 89.8923 96.1887 88.2631L94.5613 87.1006C93.6038 88.441 92.3618 89.4669 90.8175 90.1839L91.6597 91.9979ZM96.1887 88.2631C97.3893 86.5822 97.9659 84.5674 97.9659 82.2727H95.9659C95.9659 84.2205 95.4819 85.8117 94.5613 87.1006L96.1887 88.2631ZM97.9659 82.2727V76.4545H95.9659V82.2727H97.9659ZM96.5873 75.529C95.9472 75.7908 95.2599 76.0396 94.5248 76.2748L95.1343 78.1797C95.9143 77.9301 96.6513 77.6637 97.3445 77.3801L96.5873 75.529ZM94.5133 76.2786C93.8134 76.5119 93.0504 76.7322 92.2234 76.9389L92.7085 78.8792C93.5784 78.6618 94.3911 78.4275 95.1458 78.176L94.5133 76.2786ZM92.215 76.9411C91.4193 77.1474 90.5611 77.3399 89.6395 77.5182L90.0196 79.4818C90.9768 79.2965 91.8761 79.0951 92.7169 78.8771L92.215 76.9411ZM89.6334 77.5194C88.741 77.6979 87.802 77.8619 86.8161 78.0113L87.1157 79.9887C88.1298 79.8351 89.0999 79.6657 90.0257 79.4806L89.6334 77.5194ZM86.8115 78.012C84.7958 78.3269 83.0813 78.8552 81.7039 79.6279L82.6824 81.3721C83.7899 80.7509 85.2572 80.2791 87.1203 79.988L86.8115 78.012ZM81.7113 79.6238C80.3738 80.3594 79.323 81.3064 78.6107 82.4817L80.3211 83.5183C80.8209 82.6936 81.5884 81.9739 82.6751 81.3762L81.7113 79.6238ZM78.6061 82.4895C77.9317 83.6252 77.6023 84.8949 77.6023 86.2727H79.6023C79.6023 85.2263 79.8486 84.3142 80.3258 83.5105L78.6061 82.4895ZM77.6023 86.2727C77.6023 88.4774 78.395 90.2785 80.0449 91.5251L81.2506 89.9294C80.1732 89.1154 79.6023 87.9469 79.6023 86.2727H77.6023ZM80.0449 91.5251C81.6204 92.7155 83.5896 93.2727 85.875 93.2727V91.2727C83.9179 91.2727 82.4023 90.7996 81.2506 89.9294L80.0449 91.5251ZM156.409 90.4545L155.409 90.4484L155.391 93.3777L157.197 91.0709L156.409 90.4545ZM156.591 60.6364V59.6364H155.597L155.591 60.6303L156.591 60.6364ZM159.864 60.6364V61.6364H160.375L160.675 61.2212L159.864 60.6364ZM176.773 37.1818V36.1818H176.261L175.962 36.597L176.773 37.1818ZM204.955 37.1818L205.745 37.7949L206.997 36.1818H204.955V37.1818ZM176.591 73.7273V74.7273H177.081L177.381 74.3404L176.591 73.7273ZM169.5 73.7273V72.7273H169.013L168.712 73.111L169.5 73.7273ZM133.864 107H132.864V108H133.864V107ZM133.864 13.9091V12.9091H132.864V13.9091H133.864ZM158.955 13.9091H159.955V12.9091H158.955V13.9091ZM158.955 107V108H159.955V107H158.955ZM176.955 107L176.089 107.501L176.378 108H176.955V107ZM160.955 79.3636L160.218 78.6872L159.721 79.2286L160.089 79.8647L160.955 79.3636ZM177.318 61.5455L178.167 61.0161L177.471 59.9009L176.582 60.869L177.318 61.5455ZM205.682 107V108H207.485L206.53 106.471L205.682 107ZM157.409 90.4606L157.591 60.6425L155.591 60.6303L155.409 90.4484L157.409 90.4606ZM156.591 61.6364H159.864V59.6364H156.591V61.6364ZM160.675 61.2212L177.584 37.7666L175.962 36.597L159.052 60.0516L160.675 61.2212ZM176.773 38.1818H204.955V36.1818H176.773V38.1818ZM204.165 36.5687L175.801 73.1142L177.381 74.3404L205.745 37.7949L204.165 36.5687ZM176.591 72.7273H169.5V74.7273H176.591V72.7273ZM168.712 73.111L155.622 89.8382L157.197 91.0709L170.288 74.3436L168.712 73.111ZM134.864 107V13.9091H132.864V107H134.864ZM133.864 14.9091H158.955V12.9091H133.864V14.9091ZM157.955 13.9091V107H159.955V13.9091H157.955ZM158.955 106H133.864V108H158.955V106ZM177.82 106.499L161.82 78.8626L160.089 79.8647L176.089 107.501L177.82 106.499ZM161.691 80.04L178.055 62.2219L176.582 60.869L160.218 78.6872L161.691 80.04ZM176.47 62.0748L204.833 107.529L206.53 106.471L178.167 61.0161L176.47 62.0748ZM205.682 106H176.955V108H205.682V106ZM222.795 104L222.323 104.881L222.328 104.884L222.795 104ZM210.386 91.6364L209.504 92.1072L209.507 92.1131L210.386 91.6364ZM210.432 53.3636L211.312 53.8383L210.432 53.3636ZM222.75 40.7727L223.242 41.6431L222.75 40.7727ZM255.841 38.7273L256.199 37.7934L255.841 38.7273ZM266.795 45.8636L266.078 46.5602L266.081 46.5637L266.795 45.8636ZM273.795 57.1364L272.858 57.4833L273.795 57.1364ZM276.25 77.9091V78.9091H277.25V77.9091H276.25ZM213.886 77.9091H212.886V78.9091H213.886V77.9091ZM213.886 64.0909V63.0909H212.886V64.0909H213.886ZM253.159 64.0909V65.0909H254.174L254.159 64.0758L253.159 64.0909ZM251.614 58.8182L250.767 59.3497L250.773 59.3594L250.779 59.369L251.614 58.8182ZM247.659 55.2273L247.186 56.1083L247.196 56.1135L247.205 56.1184L247.659 55.2273ZM236.477 55.2273L236.924 56.1217L236.931 56.1185L236.937 56.1153L236.477 55.2273ZM232.386 58.7727L231.559 58.2104L231.552 58.2219L232.386 58.7727ZM230.795 64.0909L229.796 64.0611L229.795 64.076V64.0909H230.795ZM232.205 85L231.323 85.4714L232.205 85ZM236.25 89.1364L235.755 90.0055L236.25 89.1364ZM247.341 89.9091L247.025 88.9604L247.019 88.9624L247.341 89.9091ZM251.068 87.8182L251.73 88.568L251.736 88.5626L251.742 88.5571L251.068 87.8182ZM253.341 84.4545V83.4545H252.646L252.404 84.1058L253.341 84.4545ZM276.25 84.4545L277.237 84.6149L277.426 83.4545H276.25V84.4545ZM270.659 97.0909L271.429 97.7292L271.432 97.7259L270.659 97.0909ZM258.977 105.364L259.351 106.291L259.354 106.29L258.977 105.364ZM242.068 107.273C234.741 107.273 228.484 105.873 223.262 103.116L222.328 104.884C227.895 107.824 234.487 109.273 242.068 109.273V107.273ZM223.268 103.119C218.077 100.333 214.082 96.3521 211.265 91.1596L209.507 92.1131C212.509 97.6479 216.787 101.91 222.323 104.881L223.268 103.119ZM211.269 91.1655C208.483 85.946 207.068 79.6608 207.068 72.2727H205.068C205.068 79.915 206.532 86.5388 209.504 92.1072L211.269 91.1655ZM207.068 72.2727C207.068 65.197 208.494 59.0626 211.312 53.8383L209.552 52.8889C206.551 58.4526 205.068 64.9242 205.068 72.2727H207.068ZM211.312 53.8383C214.132 48.6091 218.104 44.5498 223.242 41.6431L222.258 39.9024C216.79 42.9957 212.55 47.3302 209.552 52.8889L211.312 53.8383ZM223.242 41.6431C228.37 38.7425 234.451 37.2727 241.523 37.2727V35.2727C234.17 35.2727 227.736 36.803 222.258 39.9024L223.242 41.6431ZM241.523 37.2727C246.692 37.2727 251.341 38.0746 255.483 39.6611L256.199 37.7934C251.796 36.1072 246.899 35.2727 241.523 35.2727V37.2727ZM255.483 39.6611C259.627 41.2482 263.154 43.5487 266.078 46.5602L267.513 45.1671C264.376 41.9361 260.6 39.479 256.199 37.7934L255.483 39.6611ZM266.081 46.5637C269.004 49.5452 271.266 53.1792 272.858 57.4833L274.733 56.7895C273.053 52.245 270.647 48.3639 267.51 45.1636L266.081 46.5637ZM272.858 57.4833C274.446 61.7788 275.25 66.6435 275.25 72.0909H277.25C277.25 66.4474 276.417 61.3424 274.733 56.7895L272.858 57.4833ZM275.25 72.0909V77.9091H277.25V72.0909H275.25ZM276.25 76.9091H213.886V78.9091H276.25V76.9091ZM214.886 77.9091V64.0909H212.886V77.9091H214.886ZM213.886 65.0909H253.159V63.0909H213.886V65.0909ZM254.159 64.0758C254.126 61.9052 253.564 59.9576 252.448 58.2673L250.779 59.369C251.663 60.709 252.131 62.2766 252.159 64.1061L254.159 64.0758ZM252.461 58.2867C251.392 56.584 249.936 55.2645 248.113 54.3361L247.205 56.1184C248.715 56.887 249.896 57.9615 250.767 59.3497L252.461 58.2867ZM248.132 54.3463C246.333 53.38 244.303 52.9091 242.068 52.9091V54.9091C244.015 54.9091 245.713 55.317 247.186 56.1083L248.132 54.3463ZM242.068 52.9091C239.888 52.9091 237.865 53.3823 236.017 54.3393L236.937 56.1153C238.483 55.3147 240.188 54.9091 242.068 54.9091V52.9091ZM236.03 54.3328C234.186 55.2549 232.689 56.5488 231.559 58.2104L233.213 59.335C234.144 57.9664 235.375 56.8966 236.924 56.1217L236.03 54.3328ZM231.552 58.2219C230.438 59.9099 229.861 61.8678 229.796 64.0611L231.795 64.1207C231.851 62.2534 232.335 60.6658 233.221 59.3236L231.552 58.2219ZM229.795 64.0909V79H231.795V64.0909H229.795ZM229.795 79C229.795 81.386 230.296 83.5514 231.323 85.4714L233.086 84.5286C232.234 82.9334 231.795 81.0989 231.795 79H229.795ZM231.323 85.4714C232.352 87.398 233.836 88.9136 235.755 90.0055L236.745 88.2672C235.148 87.3591 233.936 86.1171 233.086 84.5286L231.323 85.4714ZM235.755 90.0055C237.695 91.1088 239.995 91.6364 242.614 91.6364V89.6364C240.263 89.6364 238.321 89.1639 236.745 88.2672L235.755 90.0055ZM242.614 91.6364C244.435 91.6364 246.121 91.3807 247.663 90.8557L247.019 88.9624C245.712 89.4072 244.247 89.6364 242.614 89.6364V91.6364ZM247.657 90.8578C249.224 90.3354 250.588 89.5756 251.73 88.568L250.407 87.0683C249.488 87.8789 248.367 88.5131 247.025 88.9604L247.657 90.8578ZM251.742 88.5571C252.89 87.5108 253.738 86.2559 254.278 84.8033L252.404 84.1058C251.975 85.2592 251.307 86.2468 250.394 87.0792L251.742 88.5571ZM253.341 85.4545H276.25V83.4545H253.341V85.4545ZM275.263 84.2942C274.502 88.9793 272.707 93.025 269.887 96.4559L271.432 97.7259C274.49 94.0053 276.423 89.6267 277.237 84.6149L275.263 84.2942ZM269.889 96.4527C267.069 99.8546 263.318 102.521 258.601 104.437L259.354 106.29C264.334 104.267 268.371 101.418 271.429 97.7291L269.889 96.4527ZM258.604 104.436C253.929 106.318 248.425 107.273 242.068 107.273V109.273C248.621 109.273 254.389 108.289 259.351 106.291L258.604 104.436ZM319.625 105.909L319.224 106.825L319.234 106.829L319.625 105.909ZM311.625 99.1818L310.785 99.7247L311.625 99.1818ZM310.67 77.9545L311.571 78.3896L311.573 78.3856L310.67 77.9545ZM316.125 71.2727L316.72 72.0765L316.125 71.2727ZM324.261 67.3182L323.982 66.3581L323.979 66.3588L324.261 67.3182ZM334.352 65.5455L334.428 66.5426L334.43 66.5425L334.352 65.5455ZM343.761 64.4545L343.938 65.4389L343.948 65.437L343.761 64.4545ZM348.943 62.5909L349.54 63.3937L349.547 63.3882L349.554 63.3827L348.943 62.5909ZM348.443 55L347.872 55.8209L348.443 55ZM337.216 55.1364L337.786 55.958L337.789 55.9556L337.216 55.1364ZM334.534 59.9091V60.9091H335.403L335.524 60.0486L334.534 59.9091ZM311.443 59.9091L310.446 59.8378L310.369 60.9091H311.443V59.9091ZM315.489 48.1818L314.659 47.6239L314.658 47.6255L315.489 48.1818ZM326.08 39.5455L326.5 40.4526L326.505 40.4503L326.08 39.5455ZM356.898 38.0455L356.612 39.0039L356.619 39.0059L356.898 38.0455ZM367.034 42.9091L366.434 43.7091L366.44 43.7133L367.034 42.9091ZM373.398 50.1818L372.511 50.6444L372.517 50.6559L373.398 50.1818ZM375.625 107V108H376.625V107H375.625ZM352.17 107H351.17V108H352.17V107ZM352.17 97.1818H353.17V96.1818H352.17V97.1818ZM351.625 97.1818V96.1818H351.026L350.743 96.7102L351.625 97.1818ZM346.534 103.5L345.908 102.72L345.902 102.725L346.534 103.5ZM339.761 107L339.487 106.038L339.484 106.039L339.761 107ZM344.989 91.0909L344.568 90.1839L344.561 90.1868L344.989 91.0909ZM349.125 87.6818L348.311 87.1006L349.125 87.6818ZM350.716 76.4545H351.716V74.965L350.337 75.529L350.716 76.4545ZM348.58 77.2273L348.275 76.2748L348.263 76.2786L348.58 77.2273ZM346.216 77.9091L345.973 76.9389L345.965 76.9411L346.216 77.9091ZM343.58 78.5L343.39 77.5182L343.383 77.5194L343.58 78.5ZM340.716 79L340.566 78.0113L340.562 78.012L340.716 79ZM335.943 80.5L336.425 81.3762L336.432 81.3721L335.943 80.5ZM333.216 83L332.361 82.4817L332.356 82.4895L333.216 83ZM334.398 90.7273L335.001 89.9294L334.398 90.7273ZM331.443 107.091C327.097 107.091 323.295 106.381 320.016 104.989L319.234 106.829C322.804 108.346 326.88 109.091 331.443 109.091V107.091ZM320.026 104.993C316.805 103.584 314.294 101.468 312.465 98.6389L310.785 99.7247C312.835 102.896 315.658 105.265 319.224 106.825L320.026 104.993ZM312.465 98.6389C310.657 95.8424 309.716 92.2276 309.716 87.7273H307.716C307.716 92.4997 308.714 96.5212 310.785 99.7247L312.465 98.6389ZM309.716 87.7273C309.716 84.0197 310.349 80.9189 311.571 78.3896L309.77 77.5195C308.386 80.3841 307.716 83.7985 307.716 87.7273H309.716ZM311.573 78.3856C312.808 75.7996 314.523 73.7024 316.72 72.0765L315.53 70.469C313.06 72.2976 311.139 74.655 309.768 77.5234L311.573 78.3856ZM316.72 72.0765C318.949 70.4263 321.553 69.1571 324.544 68.2775L323.979 66.3588C320.788 67.2974 317.967 68.6646 315.53 70.469L316.72 72.0765ZM324.541 68.2783C327.589 67.3906 330.883 66.8107 334.428 66.5426L334.277 64.5483C330.609 64.8257 327.176 65.4276 323.982 66.3581L324.541 68.2783ZM334.43 66.5425C338.354 66.2382 341.528 65.8715 343.938 65.4388L343.585 63.4703C341.268 63.8861 338.169 64.2466 334.275 64.5484L334.43 66.5425ZM343.948 65.437C346.385 64.9742 348.294 64.3188 349.54 63.3937L348.347 61.7882C347.471 62.4387 345.925 63.0258 343.575 63.4721L343.948 65.437ZM349.554 63.3827C350.859 62.3762 351.534 61.0086 351.534 59.3636H349.534C349.534 60.3853 349.149 61.1693 348.332 61.7991L349.554 63.3827ZM351.534 59.3636V59.1818H349.534V59.3636H351.534ZM351.534 59.1818C351.534 57.0636 350.699 55.3508 349.014 54.1791L347.872 55.8209C348.976 56.5886 349.534 57.6637 349.534 59.1818H351.534ZM349.014 54.1791C347.411 53.0636 345.408 52.5455 343.08 52.5455V54.5455C345.115 54.5455 346.688 54.997 347.872 55.8209L349.014 54.1791ZM343.08 52.5455C340.541 52.5455 338.369 53.1085 336.642 54.3171L337.789 55.9556C339.093 55.043 340.831 54.5455 343.08 54.5455V52.5455ZM336.646 54.3148C334.886 55.5357 333.877 57.4026 333.544 59.7696L335.524 60.0486C335.797 58.1126 336.576 56.7976 337.786 55.958L336.646 54.3148ZM334.534 58.9091H311.443V60.9091H334.534V58.9091ZM312.441 59.9803C312.731 55.9135 314.021 52.1712 316.32 48.7381L314.658 47.6255C312.168 51.3439 310.761 55.4199 310.446 59.8378L312.441 59.9803ZM316.319 48.7397C318.624 45.3101 322 42.5409 326.5 40.4525L325.659 38.6384C320.886 40.853 317.202 43.8414 314.659 47.6239L316.319 48.7397ZM326.505 40.4503C330.97 38.3492 336.602 37.2727 343.443 37.2727V35.2727C336.406 35.2727 330.462 36.3781 325.654 38.6406L326.505 40.4503ZM343.443 37.2727C348.366 37.2727 352.752 37.8546 356.612 39.0039L357.183 37.087C353.104 35.8726 348.521 35.2727 343.443 35.2727V37.2727ZM356.619 39.0059C360.494 40.1299 363.759 41.7027 366.434 43.7091L367.634 42.1091C364.734 39.9337 361.241 38.2641 357.176 37.085L356.619 39.0059ZM366.44 43.7133C369.118 45.693 371.134 48.0044 372.511 50.6444L374.284 49.7192C372.753 46.7835 370.526 44.2464 367.628 42.1049L366.44 43.7133ZM372.517 50.6559C373.921 53.2625 374.625 56.0988 374.625 59.1818H376.625C376.625 55.78 375.844 52.6162 374.278 49.7077L372.517 50.6559ZM374.625 59.1818V107H376.625V59.1818H374.625ZM375.625 106H352.17V108H375.625V106ZM353.17 107V97.1818H351.17V107H353.17ZM352.17 96.1818H351.625V98.1818H352.17V96.1818ZM350.743 96.7102C349.403 99.2153 347.788 101.211 345.908 102.72L347.16 104.28C349.28 102.577 351.059 100.36 352.507 97.6535L350.743 96.7102ZM345.902 102.725C344.042 104.242 341.907 105.347 339.487 106.038L340.036 107.962C342.706 107.199 345.087 105.97 347.166 104.275L345.902 102.725ZM339.484 106.039C337.072 106.737 334.394 107.091 331.443 107.091V109.091C334.553 109.091 337.421 108.718 340.039 107.961L339.484 106.039ZM339.625 93.2727C341.676 93.2727 343.611 92.8483 345.416 91.995L344.561 90.1868C343.033 90.9093 341.392 91.2727 339.625 91.2727V93.2727ZM345.41 91.9979C347.259 91.1391 348.775 89.8923 349.939 88.2631L348.311 87.1006C347.354 88.441 346.112 89.4669 344.568 90.1839L345.41 91.9979ZM349.939 88.2631C351.139 86.5822 351.716 84.5674 351.716 82.2727H349.716C349.716 84.2205 349.232 85.8117 348.311 87.1006L349.939 88.2631ZM351.716 82.2727V76.4545H349.716V82.2727H351.716ZM350.337 75.529C349.697 75.7908 349.01 76.0396 348.275 76.2748L348.884 78.1797C349.664 77.9301 350.401 77.6637 351.095 77.3801L350.337 75.529ZM348.263 76.2786C347.563 76.5119 346.8 76.7322 345.973 76.9389L346.458 78.8792C347.328 78.6618 348.141 78.4275 348.896 78.176L348.263 76.2786ZM345.965 76.9411C345.169 77.1474 344.311 77.3399 343.39 77.5182L343.77 79.4818C344.727 79.2965 345.626 79.0951 346.467 78.8771L345.965 76.9411ZM343.383 77.5194C342.491 77.6979 341.552 77.8619 340.566 78.0113L340.866 79.9887C341.88 79.8351 342.85 79.6657 343.776 79.4806L343.383 77.5194ZM340.562 78.012C338.546 78.3269 336.831 78.8552 335.454 79.6279L336.432 81.3721C337.54 80.7509 339.007 80.2791 340.87 79.988L340.562 78.012ZM335.461 79.6238C334.124 80.3594 333.073 81.3064 332.361 82.4817L334.071 83.5183C334.571 82.6936 335.338 81.9739 336.425 81.3762L335.461 79.6238ZM332.356 82.4895C331.682 83.6252 331.352 84.8949 331.352 86.2727H333.352C333.352 85.2263 333.599 84.3142 334.076 83.5105L332.356 82.4895ZM331.352 86.2727C331.352 88.4774 332.145 90.2785 333.795 91.5251L335.001 89.9294C333.923 89.1154 333.352 87.9469 333.352 86.2727H331.352ZM333.795 91.5251C335.37 92.7155 337.34 93.2727 339.625 93.2727V91.2727C337.668 91.2727 336.152 90.7996 335.001 89.9294L333.795 91.5251ZM31.4545 103.909H32.4545V102.909H31.4545V103.909ZM31.4545 197V198H32.4545V197H31.4545ZM6.36364 197H5.36364V198H6.36364V197ZM6.36364 103.909V102.909H5.36364V103.909H6.36364ZM30.4545 103.909V197H32.4545V103.909H30.4545ZM31.4545 196H6.36364V198H31.4545V196ZM7.36364 197V103.909H5.36364V197H7.36364ZM6.36364 104.909H31.4545V102.909H6.36364V104.909ZM58.4205 193.773L57.9307 194.645L57.9344 194.647L58.4205 193.773ZM46.0114 181.136L45.1281 181.605L45.1291 181.607L46.0114 181.136ZM46.0114 143.455L46.8936 143.925L46.8947 143.923L46.0114 143.455ZM58.4205 130.818L58.9065 131.692L58.9103 131.69L58.4205 130.818ZM97.3295 130.818L96.8397 131.69L96.8435 131.692L97.3295 130.818ZM109.739 143.455L108.855 143.923L108.856 143.925L109.739 143.455ZM109.739 181.136L110.621 181.607L110.622 181.605L109.739 181.136ZM97.3295 193.773L97.8156 194.647L97.8193 194.645L97.3295 193.773ZM83.5568 177.591L84.2345 178.326H84.2345L83.5568 177.591ZM87.1477 171.5L88.0996 171.806L87.1477 171.5ZM87.1477 152.682L86.1958 152.988L86.1969 152.991L87.1477 152.682ZM83.5568 146.591L84.2345 145.856H84.2345L83.5568 146.591ZM68.6023 152.682L69.5532 152.991L69.5542 152.988L68.6023 152.682ZM68.6023 171.5L69.5542 171.194L68.6023 171.5ZM77.875 197.273C70.431 197.273 64.1216 195.799 58.9065 192.899L57.9344 194.647C63.5072 197.746 70.1675 199.273 77.875 199.273V197.273ZM58.9103 192.901C53.6806 189.963 49.6814 185.889 46.8936 180.666L45.1291 181.607C48.0989 187.172 52.3724 191.522 57.9307 194.645L58.9103 192.901ZM46.8947 180.668C44.1042 175.41 42.6932 169.288 42.6932 162.273H40.6932C40.6932 169.561 42.1609 176.014 45.1281 181.605L46.8947 180.668ZM42.6932 162.273C42.6932 155.258 44.1043 149.152 46.8936 143.925L45.1291 142.984C42.1609 148.545 40.6932 154.985 40.6932 162.273H42.6932ZM46.8947 143.923C49.6824 138.671 53.6804 134.599 58.9065 131.692L57.9344 129.944C52.3726 133.038 48.0979 137.39 45.1281 142.986L46.8947 143.923ZM58.9103 131.69C64.1245 128.761 70.4326 127.273 77.875 127.273V125.273C70.1659 125.273 63.5043 126.815 57.9307 129.946L58.9103 131.69ZM77.875 127.273C85.3174 127.273 91.6255 128.761 96.8398 131.69L97.8193 129.946C92.2457 126.815 85.5841 125.273 77.875 125.273V127.273ZM96.8435 131.692C102.07 134.599 106.068 138.671 108.855 143.923L110.622 142.986C107.652 137.39 103.377 133.038 97.8156 129.944L96.8435 131.692ZM108.856 143.925C111.646 149.152 113.057 155.258 113.057 162.273H115.057C115.057 154.985 113.589 148.545 110.621 142.984L108.856 143.925ZM113.057 162.273C113.057 169.288 111.646 175.41 108.855 180.668L110.622 181.605C113.589 176.014 115.057 169.561 115.057 162.273H113.057ZM108.856 180.666C106.069 185.889 102.069 189.963 96.8398 192.901L97.8193 194.645C103.378 191.522 107.651 187.172 110.621 181.607L108.856 180.666ZM96.8435 192.899C91.6284 195.799 85.319 197.273 77.875 197.273V199.273C85.5825 199.273 92.2428 197.746 97.8156 194.647L96.8435 192.899ZM78.0568 180.727C80.4265 180.727 82.5025 179.922 84.2345 178.326L82.8791 176.856C81.5202 178.108 79.9295 178.727 78.0568 178.727V180.727ZM84.2345 178.326C85.9409 176.754 87.2146 174.556 88.0996 171.806L86.1958 171.194C85.3839 173.716 84.2636 175.58 82.8791 176.856L84.2345 178.326ZM88.0996 171.806C88.9882 169.046 89.4205 165.801 89.4205 162.091H87.4205C87.4205 165.654 87.0042 168.682 86.1958 171.194L88.0996 171.806ZM89.4205 162.091C89.4205 158.352 88.9885 155.106 88.0986 152.372L86.1969 152.991C87.0039 155.47 87.4205 158.496 87.4205 162.091H89.4205ZM88.0996 152.375C87.2146 149.625 85.9409 147.428 84.2345 145.856L82.8791 147.326C84.2636 148.602 85.3839 150.465 86.1958 152.988L88.0996 152.375ZM84.2345 145.856C82.5025 144.259 80.4265 143.455 78.0568 143.455V145.455C79.9295 145.455 81.5202 146.074 82.8791 147.326L84.2345 145.856ZM78.0568 143.455C75.5818 143.455 73.4184 144.248 71.6206 145.843L72.9476 147.339C74.362 146.085 76.047 145.455 78.0568 145.455V143.455ZM71.6206 145.843C69.847 147.416 68.5381 149.617 67.6504 152.375L69.5542 152.988C70.3634 150.474 71.509 148.615 72.9476 147.339L71.6206 145.843ZM67.6514 152.372C66.7615 155.106 66.3295 158.352 66.3295 162.091H68.3295C68.3295 158.496 68.7461 155.47 69.5531 152.991L67.6514 152.372ZM66.3295 162.091C66.3295 165.801 66.7618 169.046 67.6504 171.806L69.5542 171.194C68.7458 168.682 68.3295 165.654 68.3295 162.091H66.3295ZM67.6504 171.806C68.5381 174.565 69.847 176.766 71.6206 178.339L72.9476 176.843C71.509 175.567 70.3634 173.708 69.5542 171.194L67.6504 171.806ZM71.6206 178.339C73.4184 179.933 75.5818 180.727 78.0568 180.727V178.727C76.047 178.727 74.362 178.097 72.9476 176.843L71.6206 178.339ZM138.42 193.773L137.931 194.645L137.934 194.647L138.42 193.773ZM126.011 181.136L125.128 181.605L125.129 181.607L126.011 181.136ZM126.011 143.455L126.894 143.925L126.895 143.923L126.011 143.455ZM138.42 130.818L138.907 131.692L138.91 131.69L138.42 130.818ZM177.33 130.818L176.84 131.69L176.843 131.692L177.33 130.818ZM189.739 143.455L188.855 143.923L188.856 143.925L189.739 143.455ZM189.739 181.136L190.621 181.607L190.622 181.605L189.739 181.136ZM177.33 193.773L177.816 194.647L177.819 194.645L177.33 193.773ZM163.557 177.591L164.234 178.326L163.557 177.591ZM167.148 171.5L168.1 171.806L167.148 171.5ZM167.148 152.682L166.196 152.988L166.197 152.991L167.148 152.682ZM163.557 146.591L164.234 145.856L163.557 146.591ZM148.602 152.682L149.553 152.991L149.554 152.988L148.602 152.682ZM148.602 171.5L149.554 171.194L148.602 171.5ZM157.875 197.273C150.431 197.273 144.122 195.799 138.907 192.899L137.934 194.647C143.507 197.746 150.167 199.273 157.875 199.273V197.273ZM138.91 192.901C133.681 189.963 129.681 185.889 126.894 180.666L125.129 181.607C128.099 187.172 132.372 191.522 137.931 194.645L138.91 192.901ZM126.895 180.668C124.104 175.41 122.693 169.288 122.693 162.273H120.693C120.693 169.561 122.161 176.014 125.128 181.605L126.895 180.668ZM122.693 162.273C122.693 155.258 124.104 149.152 126.894 143.925L125.129 142.984C122.161 148.545 120.693 154.985 120.693 162.273H122.693ZM126.895 143.923C129.682 138.671 133.68 134.599 138.907 131.692L137.934 129.944C132.373 133.038 128.098 137.39 125.128 142.986L126.895 143.923ZM138.91 131.69C144.124 128.761 150.433 127.273 157.875 127.273V125.273C150.166 125.273 143.504 126.815 137.931 129.946L138.91 131.69ZM157.875 127.273C165.317 127.273 171.626 128.761 176.84 131.69L177.819 129.946C172.246 126.815 165.584 125.273 157.875 125.273V127.273ZM176.843 131.692C182.07 134.599 186.068 138.671 188.855 143.923L190.622 142.986C187.652 137.39 183.377 133.038 177.816 129.944L176.843 131.692ZM188.856 143.925C191.646 149.152 193.057 155.258 193.057 162.273H195.057C195.057 154.985 193.589 148.545 190.621 142.984L188.856 143.925ZM193.057 162.273C193.057 169.288 191.646 175.41 188.855 180.668L190.622 181.605C193.589 176.014 195.057 169.561 195.057 162.273H193.057ZM188.856 180.666C186.069 185.889 182.069 189.963 176.84 192.901L177.819 194.645C183.378 191.522 187.651 187.172 190.621 181.607L188.856 180.666ZM176.843 192.899C171.628 195.799 165.319 197.273 157.875 197.273V199.273C165.583 199.273 172.243 197.746 177.816 194.647L176.843 192.899ZM158.057 180.727C160.427 180.727 162.502 179.922 164.234 178.326L162.879 176.856C161.52 178.108 159.93 178.727 158.057 178.727V180.727ZM164.234 178.326C165.941 176.754 167.215 174.556 168.1 171.806L166.196 171.194C165.384 173.716 164.264 175.58 162.879 176.856L164.234 178.326ZM168.1 171.806C168.988 169.046 169.42 165.801 169.42 162.091H167.42C167.42 165.654 167.004 168.682 166.196 171.194L168.1 171.806ZM169.42 162.091C169.42 158.352 168.989 155.106 168.099 152.372L166.197 152.991C167.004 155.47 167.42 158.496 167.42 162.091H169.42ZM168.1 152.375C167.215 149.625 165.941 147.428 164.234 145.856L162.879 147.326C164.264 148.602 165.384 150.465 166.196 152.988L168.1 152.375ZM164.234 145.856C162.502 144.259 160.427 143.455 158.057 143.455V145.455C159.93 145.455 161.52 146.074 162.879 147.326L164.234 145.856ZM158.057 143.455C155.582 143.455 153.418 144.248 151.621 145.843L152.948 147.339C154.362 146.085 156.047 145.455 158.057 145.455V143.455ZM151.621 145.843C149.847 147.416 148.538 149.617 147.65 152.375L149.554 152.988C150.363 150.474 151.509 148.615 152.948 147.339L151.621 145.843ZM147.651 152.372C146.761 155.106 146.33 158.352 146.33 162.091H148.33C148.33 158.496 148.746 155.47 149.553 152.991L147.651 152.372ZM146.33 162.091C146.33 165.801 146.762 169.046 147.65 171.806L149.554 171.194C148.746 168.682 148.33 165.654 148.33 162.091H146.33ZM147.65 171.806C148.538 174.565 149.847 176.766 151.621 178.339L152.948 176.843C151.509 175.567 150.363 173.708 149.554 171.194L147.65 171.806ZM151.621 178.339C153.418 179.933 155.582 180.727 158.057 180.727V178.727C156.047 178.727 154.362 178.097 152.948 176.843L151.621 178.339ZM226.784 180.455L225.784 180.448L225.766 183.378L227.572 181.071L226.784 180.455ZM226.966 150.636V149.636H225.972L225.966 150.63L226.966 150.636ZM230.239 150.636V151.636H230.75L231.05 151.221L230.239 150.636ZM247.148 127.182V126.182H246.636L246.337 126.597L247.148 127.182ZM275.33 127.182L276.12 127.795L277.372 126.182H275.33V127.182ZM246.966 163.727V164.727H247.456L247.756 164.34L246.966 163.727ZM239.875 163.727V162.727H239.388L239.087 163.111L239.875 163.727ZM204.239 197H203.239V198H204.239V197ZM204.239 103.909V102.909H203.239V103.909H204.239ZM229.33 103.909H230.33V102.909H229.33V103.909ZM229.33 197V198H230.33V197H229.33ZM247.33 197L246.464 197.501L246.753 198H247.33V197ZM231.33 169.364L230.593 168.687L230.096 169.229L230.464 169.865L231.33 169.364ZM247.693 151.545L248.542 151.016L247.846 149.901L246.957 150.869L247.693 151.545ZM276.057 197V198H277.86L276.905 196.471L276.057 197ZM227.784 180.461L227.966 150.642L225.966 150.63L225.784 180.448L227.784 180.461ZM226.966 151.636H230.239V149.636H226.966V151.636ZM231.05 151.221L247.959 127.767L246.337 126.597L229.427 150.052L231.05 151.221ZM247.148 128.182H275.33V126.182H247.148V128.182ZM274.54 126.569L246.176 163.114L247.756 164.34L276.12 127.795L274.54 126.569ZM246.966 162.727H239.875V164.727H246.966V162.727ZM239.087 163.111L225.997 179.838L227.572 181.071L240.663 164.344L239.087 163.111ZM205.239 197V103.909H203.239V197H205.239ZM204.239 104.909H229.33V102.909H204.239V104.909ZM228.33 103.909V197H230.33V103.909H228.33ZM229.33 196H204.239V198H229.33V196ZM248.195 196.499L232.195 168.863L230.464 169.865L246.464 197.501L248.195 196.499ZM232.066 170.04L248.43 152.222L246.957 150.869L230.593 168.687L232.066 170.04ZM246.845 152.075L275.208 197.529L276.905 196.471L248.542 151.016L246.845 152.075ZM276.057 196H247.33V198H276.057V196ZM315 195.909L314.599 196.825L314.609 196.829L315 195.909ZM307 189.182L306.16 189.725L307 189.182ZM306.045 167.955L306.946 168.39L306.948 168.386L306.045 167.955ZM311.5 161.273L312.095 162.076L311.5 161.273ZM319.636 157.318L319.357 156.358L319.354 156.359L319.636 157.318ZM329.727 155.545L329.803 156.543L329.805 156.542L329.727 155.545ZM339.136 154.455L339.313 155.439L339.323 155.437L339.136 154.455ZM344.318 152.591L344.915 153.394L344.922 153.388L344.929 153.383L344.318 152.591ZM343.818 145L343.247 145.821L343.818 145ZM332.591 145.136L333.161 145.958L333.164 145.956L332.591 145.136ZM329.909 149.909V150.909H330.778L330.899 150.049L329.909 149.909ZM306.818 149.909L305.821 149.838L305.744 150.909H306.818V149.909ZM310.864 138.182L310.034 137.624L310.033 137.625L310.864 138.182ZM321.455 129.545L321.875 130.453L321.88 130.45L321.455 129.545ZM352.273 128.045L351.987 129.004L351.994 129.006L352.273 128.045ZM362.409 132.909L361.809 133.709L361.815 133.713L362.409 132.909ZM368.773 140.182L367.886 140.644L367.892 140.656L368.773 140.182ZM371 197V198H372V197H371ZM347.545 197H346.545V198H347.545V197ZM347.545 187.182H348.545V186.182H347.545V187.182ZM347 187.182V186.182H346.401L346.118 186.71L347 187.182ZM341.909 193.5L341.283 192.72L341.277 192.725L341.909 193.5ZM335.136 197L334.862 196.038L334.859 196.039L335.136 197ZM340.364 181.091L339.943 180.184L339.936 180.187L340.364 181.091ZM344.5 177.682L343.686 177.101L344.5 177.682ZM346.091 166.455H347.091V164.965L345.712 165.529L346.091 166.455ZM343.955 167.227L343.65 166.275L343.638 166.279L343.955 167.227ZM341.591 167.909L341.348 166.939L341.34 166.941L341.591 167.909ZM338.955 168.5L338.765 167.518L338.758 167.519L338.955 168.5ZM336.091 169L335.941 168.011L335.937 168.012L336.091 169ZM331.318 170.5L331.8 171.376L331.807 171.372L331.318 170.5ZM328.591 173L327.736 172.482L327.731 172.489L328.591 173ZM329.773 180.727L330.376 179.929L329.773 180.727ZM326.818 197.091C322.472 197.091 318.67 196.381 315.391 194.989L314.609 196.829C318.179 198.346 322.255 199.091 326.818 199.091V197.091ZM315.401 194.993C312.18 193.584 309.669 191.468 307.84 188.639L306.16 189.725C308.21 192.896 311.033 195.265 314.599 196.825L315.401 194.993ZM307.84 188.639C306.032 185.842 305.091 182.228 305.091 177.727H303.091C303.091 182.5 304.089 186.521 306.16 189.725L307.84 188.639ZM305.091 177.727C305.091 174.02 305.724 170.919 306.946 168.39L305.145 167.52C303.761 170.384 303.091 173.799 303.091 177.727H305.091ZM306.948 168.386C308.183 165.8 309.898 163.702 312.095 162.076L310.905 160.469C308.435 162.298 306.514 164.655 305.143 167.523L306.948 168.386ZM312.095 162.076C314.324 160.426 316.928 159.157 319.919 158.278L319.354 156.359C316.163 157.297 313.342 158.665 310.905 160.469L312.095 162.076ZM319.916 158.278C322.964 157.391 326.258 156.811 329.803 156.543L329.652 154.548C325.984 154.826 322.551 155.428 319.357 156.358L319.916 158.278ZM329.805 156.542C333.729 156.238 336.903 155.871 339.313 155.439L338.96 153.47C336.643 153.886 333.544 154.247 329.65 154.548L329.805 156.542ZM339.323 155.437C341.76 154.974 343.669 154.319 344.915 153.394L343.722 151.788C342.846 152.439 341.3 153.026 338.95 153.472L339.323 155.437ZM344.929 153.383C346.234 152.376 346.909 151.009 346.909 149.364H344.909C344.909 150.385 344.524 151.169 343.707 151.799L344.929 153.383ZM346.909 149.364V149.182H344.909V149.364H346.909ZM346.909 149.182C346.909 147.064 346.074 145.351 344.389 144.179L343.247 145.821C344.351 146.589 344.909 147.664 344.909 149.182H346.909ZM344.389 144.179C342.786 143.064 340.783 142.545 338.455 142.545V144.545C340.49 144.545 342.063 144.997 343.247 145.821L344.389 144.179ZM338.455 142.545C335.916 142.545 333.744 143.109 332.017 144.317L333.164 145.956C334.468 145.043 336.206 144.545 338.455 144.545V142.545ZM332.021 144.315C330.261 145.536 329.252 147.403 328.919 149.77L330.899 150.049C331.172 148.113 331.951 146.798 333.161 145.958L332.021 144.315ZM329.909 148.909H306.818V150.909H329.909V148.909ZM307.816 149.98C308.106 145.913 309.396 142.171 311.695 138.738L310.033 137.625C307.543 141.344 306.136 145.42 305.821 149.838L307.816 149.98ZM311.694 138.74C313.999 135.31 317.375 132.541 321.875 130.453L321.034 128.638C316.261 130.853 312.577 133.841 310.034 137.624L311.694 138.74ZM321.88 130.45C326.345 128.349 331.977 127.273 338.818 127.273V125.273C331.781 125.273 325.837 126.378 321.029 128.641L321.88 130.45ZM338.818 127.273C343.741 127.273 348.127 127.855 351.987 129.004L352.558 127.087C348.479 125.873 343.896 125.273 338.818 125.273V127.273ZM351.994 129.006C355.869 130.13 359.134 131.703 361.809 133.709L363.009 132.109C360.109 129.934 356.616 128.264 352.551 127.085L351.994 129.006ZM361.815 133.713C364.493 135.693 366.509 138.004 367.886 140.644L369.659 139.719C368.128 136.783 365.901 134.246 363.003 132.105L361.815 133.713ZM367.892 140.656C369.296 143.263 370 146.099 370 149.182H372C372 145.78 371.219 142.616 369.653 139.708L367.892 140.656ZM370 149.182V197H372V149.182H370ZM371 196H347.545V198H371V196ZM348.545 197V187.182H346.545V197H348.545ZM347.545 186.182H347V188.182H347.545V186.182ZM346.118 186.71C344.778 189.215 343.163 191.211 341.283 192.72L342.535 194.28C344.655 192.577 346.434 190.36 347.882 187.653L346.118 186.71ZM341.277 192.725C339.417 194.242 337.282 195.347 334.862 196.038L335.411 197.962C338.081 197.199 340.462 195.97 342.541 194.275L341.277 192.725ZM334.859 196.039C332.447 196.737 329.769 197.091 326.818 197.091V199.091C329.928 199.091 332.796 198.718 335.414 197.961L334.859 196.039ZM335 183.273C337.051 183.273 338.986 182.848 340.791 181.995L339.936 180.187C338.408 180.909 336.767 181.273 335 181.273V183.273ZM340.785 181.998C342.634 181.139 344.15 179.892 345.314 178.263L343.686 177.101C342.729 178.441 341.487 179.467 339.943 180.184L340.785 181.998ZM345.314 178.263C346.514 176.582 347.091 174.567 347.091 172.273H345.091C345.091 174.22 344.607 175.812 343.686 177.101L345.314 178.263ZM347.091 172.273V166.455H345.091V172.273H347.091ZM345.712 165.529C345.072 165.791 344.385 166.04 343.65 166.275L344.259 168.18C345.039 167.93 345.776 167.664 346.47 167.38L345.712 165.529ZM343.638 166.279C342.938 166.512 342.175 166.732 341.348 166.939L341.833 168.879C342.703 168.662 343.516 168.428 344.271 168.176L343.638 166.279ZM341.34 166.941C340.544 167.147 339.686 167.34 338.765 167.518L339.145 169.482C340.102 169.297 341.001 169.095 341.842 168.877L341.34 166.941ZM338.758 167.519C337.866 167.698 336.927 167.862 335.941 168.011L336.241 169.989C337.255 169.835 338.225 169.666 339.151 169.481L338.758 167.519ZM335.937 168.012C333.921 168.327 332.206 168.855 330.829 169.628L331.807 171.372C332.915 170.751 334.382 170.279 336.245 169.988L335.937 168.012ZM330.836 169.624C329.499 170.359 328.448 171.306 327.736 172.482L329.446 173.518C329.946 172.694 330.713 171.974 331.8 171.376L330.836 169.624ZM327.731 172.489C327.057 173.625 326.727 174.895 326.727 176.273H328.727C328.727 175.226 328.974 174.314 329.451 173.511L327.731 172.489ZM326.727 176.273C326.727 178.477 327.52 180.279 329.17 181.525L330.376 179.929C329.298 179.115 328.727 177.947 328.727 176.273H326.727ZM329.17 181.525C330.745 182.716 332.715 183.273 335 183.273V181.273C333.043 181.273 331.527 180.8 330.376 179.929L329.17 181.525ZM424.625 127.182H425.625V126.182H424.625V127.182ZM424.625 145.364V146.364H425.625V145.364H424.625ZM378.625 145.364H377.625V146.364H378.625V145.364ZM378.625 127.182V126.182H377.625V127.182H378.625ZM387.534 110.455V109.455H386.534V110.455H387.534ZM412.625 110.455H413.625V109.455H412.625V110.455ZM413.125 177L412.231 177.447L412.235 177.456L412.239 177.464L413.125 177ZM414.67 178.455L414.239 179.357L414.255 179.364L414.272 179.372L414.67 178.455ZM419.989 178.636L419.815 177.652L419.81 177.652L419.989 178.636ZM422.261 178.182L423.241 177.98L423.03 176.959L422.019 177.212L422.261 178.182ZM425.898 195.818L426.183 196.777L427.062 196.515L426.877 195.616L425.898 195.818ZM421.08 197.045L420.854 196.071L420.85 196.072L421.08 197.045ZM413.716 198L413.768 198.999L413.769 198.999L413.716 198ZM399.216 196.227L398.854 197.16L398.861 197.162L399.216 196.227ZM390.398 189.091L389.543 189.61L390.398 189.091ZM387.534 176.909L388.534 176.922V176.909H387.534ZM423.625 127.182V145.364H425.625V127.182H423.625ZM424.625 144.364H378.625V146.364H424.625V144.364ZM379.625 145.364V127.182H377.625V145.364H379.625ZM378.625 128.182H424.625V126.182H378.625V128.182ZM387.534 111.455H412.625V109.455H387.534V111.455ZM411.625 110.455V174.545H413.625V110.455H411.625ZM411.625 174.545C411.625 175.625 411.81 176.606 412.231 177.447L414.019 176.553C413.773 176.06 413.625 175.405 413.625 174.545H411.625ZM412.239 177.464C412.68 178.306 413.363 178.938 414.239 179.357L415.102 177.552C414.584 177.305 414.236 176.966 414.011 176.536L412.239 177.464ZM414.272 179.372C415.137 179.748 416.179 179.909 417.352 179.909V177.909C416.343 177.909 415.598 177.767 415.069 177.537L414.272 179.372ZM417.352 179.909C418.186 179.909 419.127 179.809 420.168 179.62L419.81 177.652C418.85 177.827 418.034 177.909 417.352 177.909V179.909ZM420.162 179.621C421.197 179.439 421.983 179.282 422.504 179.152L422.019 177.212C421.57 177.324 420.841 177.47 419.815 177.652L420.162 179.621ZM421.282 178.384L424.918 196.02L426.877 195.616L423.241 177.98L421.282 178.384ZM425.613 194.86C424.521 195.184 422.938 195.588 420.854 196.071L421.305 198.02C423.403 197.533 425.032 197.119 426.183 196.777L425.613 194.86ZM420.85 196.072C418.864 196.54 416.471 196.852 413.663 197.001L413.769 198.999C416.658 198.845 419.174 198.521 421.309 198.019L420.85 196.072ZM413.663 197.001C407.995 197.3 403.311 196.713 399.571 195.292L398.861 197.162C402.939 198.711 407.921 199.306 413.768 198.999L413.663 197.001ZM399.577 195.295C395.851 193.85 393.096 191.606 391.252 188.572L389.543 189.61C391.639 193.061 394.763 195.574 398.855 197.16L399.577 195.295ZM391.252 188.572C389.404 185.529 388.475 181.666 388.534 176.922L386.534 176.897C386.472 181.91 387.452 186.168 389.543 189.61L391.252 188.572ZM388.534 176.909V110.455H386.534V176.909H388.534ZM20.5455 283.773L20.0557 284.645L20.0594 284.647L20.5455 283.773ZM8.13636 271.136L7.25305 271.605L7.25415 271.607L8.13636 271.136ZM8.13636 233.455L9.01858 233.925L9.01967 233.923L8.13636 233.455ZM20.5455 220.818L21.0315 221.692L21.0353 221.69L20.5455 220.818ZM59.4545 220.818L58.9647 221.69L58.9685 221.692L59.4545 220.818ZM71.8636 233.455L70.9803 233.923L70.9814 233.925L71.8636 233.455ZM71.8636 271.136L72.7459 271.607L72.7469 271.605L71.8636 271.136ZM59.4545 283.773L59.9406 284.647L59.9443 284.645L59.4545 283.773ZM45.6818 267.591L46.3595 268.326L45.6818 267.591ZM49.2727 261.5L50.2246 261.806L49.2727 261.5ZM49.2727 242.682L48.3208 242.988L48.3219 242.991L49.2727 242.682ZM45.6818 236.591L46.3595 235.856L45.6818 236.591ZM30.7273 242.682L31.6782 242.991L31.6792 242.988L30.7273 242.682ZM30.7273 261.5L31.6792 261.194L30.7273 261.5ZM40 287.273C32.556 287.273 26.2466 285.799 21.0315 282.899L20.0594 284.647C25.6322 287.746 32.2925 289.273 40 289.273V287.273ZM21.0353 282.901C15.8056 279.963 11.8064 275.889 9.01858 270.666L7.25415 271.607C10.2239 277.172 14.4974 281.522 20.0557 284.645L21.0353 282.901ZM9.01967 270.668C6.22924 265.41 4.81818 259.288 4.81818 252.273H2.81818C2.81818 259.561 4.28592 266.014 7.25306 271.605L9.01967 270.668ZM4.81818 252.273C4.81818 245.258 6.22929 239.152 9.01858 233.925L7.25415 232.984C4.28587 238.545 2.81818 244.985 2.81818 252.273H4.81818ZM9.01967 233.923C11.8074 228.671 15.8054 224.599 21.0315 221.692L20.0594 219.944C14.4976 223.038 10.2229 227.39 7.25306 232.986L9.01967 233.923ZM21.0353 221.69C26.2495 218.761 32.5576 217.273 40 217.273V215.273C32.2909 215.273 25.6293 216.815 20.0557 219.946L21.0353 221.69ZM40 217.273C47.4424 217.273 53.7505 218.761 58.9648 221.69L59.9443 219.946C54.3707 216.815 47.7091 215.273 40 215.273V217.273ZM58.9685 221.692C64.1946 224.599 68.1926 228.671 70.9803 233.923L72.7469 232.986C69.7771 227.39 65.5024 223.038 59.9406 219.944L58.9685 221.692ZM70.9814 233.925C73.7707 239.152 75.1818 245.258 75.1818 252.273H77.1818C77.1818 244.985 75.7141 238.545 72.7459 232.984L70.9814 233.925ZM75.1818 252.273C75.1818 259.288 73.7708 265.41 70.9803 270.668L72.7469 271.605C75.7141 266.014 77.1818 259.561 77.1818 252.273H75.1818ZM70.9814 270.666C68.1936 275.889 64.1944 279.963 58.9648 282.901L59.9443 284.645C65.5026 281.522 69.7761 277.172 72.7459 271.607L70.9814 270.666ZM58.9685 282.899C53.7534 285.799 47.444 287.273 40 287.273V289.273C47.7075 289.273 54.3678 287.746 59.9406 284.647L58.9685 282.899ZM40.1818 270.727C42.5515 270.727 44.6275 269.922 46.3595 268.326L45.0041 266.856C43.6452 268.108 42.0545 268.727 40.1818 268.727V270.727ZM46.3595 268.326C48.0659 266.754 49.3396 264.556 50.2246 261.806L48.3208 261.194C47.5089 263.716 46.3886 265.58 45.0041 266.856L46.3595 268.326ZM50.2246 261.806C51.1132 259.046 51.5455 255.801 51.5455 252.091H49.5455C49.5455 255.654 49.1292 258.682 48.3208 261.194L50.2246 261.806ZM51.5455 252.091C51.5455 248.352 51.1135 245.106 50.2236 242.372L48.3219 242.991C49.1289 245.47 49.5455 248.496 49.5455 252.091H51.5455ZM50.2246 242.375C49.3396 239.625 48.0659 237.428 46.3595 235.856L45.0041 237.326C46.3886 238.602 47.5089 240.465 48.3208 242.988L50.2246 242.375ZM46.3595 235.856C44.6275 234.259 42.5515 233.455 40.1818 233.455V235.455C42.0545 235.455 43.6452 236.074 45.0041 237.326L46.3595 235.856ZM40.1818 233.455C37.7068 233.455 35.5434 234.248 33.7456 235.843L35.0726 237.339C36.487 236.085 38.172 235.455 40.1818 235.455V233.455ZM33.7456 235.843C31.972 237.416 30.6631 239.617 29.7754 242.375L31.6792 242.988C32.4884 240.474 33.634 238.615 35.0726 237.339L33.7456 235.843ZM29.7764 242.372C28.8865 245.106 28.4545 248.352 28.4545 252.091H30.4545C30.4545 248.496 30.8711 245.47 31.6781 242.991L29.7764 242.372ZM28.4545 252.091C28.4545 255.801 28.8868 259.046 29.7754 261.806L31.6792 261.194C30.8708 258.682 30.4545 255.654 30.4545 252.091H28.4545ZM29.7754 261.806C30.6631 264.565 31.972 266.766 33.7456 268.339L35.0726 266.843C33.634 265.567 32.4884 263.708 31.6792 261.194L29.7754 261.806ZM33.7456 268.339C35.5434 269.933 37.7068 270.727 40.1818 270.727V268.727C38.172 268.727 36.487 268.097 35.0726 266.843L33.7456 268.339ZM131.636 256.455H130.636L130.636 256.468L131.636 256.455ZM131.636 217.182V216.182H130.636V217.182H131.636ZM156.727 217.182H157.727V216.182H156.727V217.182ZM156.727 287V288H157.727V287H156.727ZM132.909 287H131.909V288H132.909V287ZM132.909 273.727H133.909V272.727H132.909V273.727ZM132.182 273.727V272.727H131.466L131.235 273.405L132.182 273.727ZM124.227 284.182L124.776 285.018L124.78 285.015L124.227 284.182ZM97.9091 284.545L97.3842 285.397L97.3874 285.399L97.9091 284.545ZM89.4091 275.273L88.5174 275.725L88.5202 275.731L89.4091 275.273ZM86.3636 261.727H85.3636L85.3637 261.733L86.3636 261.727ZM86.3636 217.182V216.182H85.3636V217.182H86.3636ZM111.455 217.182H112.455V216.182H111.455V217.182ZM111.455 256.455H110.455L110.455 256.463L111.455 256.455ZM114.091 264.591L113.339 265.25L113.345 265.257L114.091 264.591ZM126.864 266.227L127.365 267.092L127.371 267.089L126.864 266.227ZM130.409 262.409L129.518 261.955L129.515 261.962L130.409 262.409ZM132.636 256.455V217.182H130.636V256.455H132.636ZM131.636 218.182H156.727V216.182H131.636V218.182ZM155.727 217.182V287H157.727V217.182H155.727ZM156.727 286H132.909V288H156.727V286ZM133.909 287V273.727H131.909V287H133.909ZM132.909 272.727H132.182V274.727H132.909V272.727ZM131.235 273.405C129.788 277.658 127.271 280.96 123.674 283.349L124.78 285.015C128.759 282.373 131.545 278.705 133.129 274.049L131.235 273.405ZM123.679 283.346C120.077 285.708 115.775 286.909 110.727 286.909V288.909C116.104 288.909 120.801 287.625 124.776 285.018L123.679 283.346ZM110.727 286.909C106.007 286.909 101.92 285.826 98.4308 283.692L97.3874 285.399C101.231 287.75 105.69 288.909 110.727 288.909V286.909ZM98.434 283.694C94.9584 281.551 92.2482 278.599 90.298 274.815L88.5202 275.731C90.6306 279.826 93.5871 283.055 97.3842 285.397L98.434 283.694ZM90.3008 274.82C88.3811 271.039 87.3931 266.681 87.3636 261.721L85.3637 261.733C85.3947 266.956 86.4371 271.628 88.5174 275.725L90.3008 274.82ZM87.3636 261.727V217.182H85.3636V261.727H87.3636ZM86.3636 218.182H111.455V216.182H86.3636V218.182ZM110.455 217.182V256.455H112.455V217.182H110.455ZM110.455 256.463C110.486 260.08 111.409 263.05 113.339 265.25L114.843 263.932C113.318 262.193 112.483 259.738 112.455 256.446L110.455 256.463ZM113.345 265.257C115.329 267.48 118.078 268.545 121.455 268.545V266.545C118.528 266.545 116.368 265.641 114.837 263.925L113.345 265.257ZM121.455 268.545C123.687 268.545 125.671 268.075 127.365 267.092L126.362 265.362C125.026 266.137 123.403 266.545 121.455 266.545V268.545ZM127.371 267.089C129.086 266.08 130.401 264.662 131.304 262.856L129.515 261.962C128.781 263.429 127.732 264.556 126.357 265.365L127.371 267.089ZM131.3 262.863C132.237 261.022 132.668 258.87 132.636 256.441L130.636 256.468C130.665 258.646 130.278 260.463 129.518 261.955L131.3 262.863ZM169.489 287H168.489V288H169.489V287ZM169.489 217.182V216.182H168.489V217.182H169.489ZM193.852 217.182H194.852V216.182H193.852V217.182ZM193.852 230.455H192.852V231.455H193.852V230.455ZM194.58 230.455V231.455H195.353L195.548 230.706L194.58 230.455ZM200.625 219.682L199.993 218.907L199.989 218.91L200.625 219.682ZM213.625 216.545L213.456 217.531L213.472 217.534L213.487 217.536L213.625 216.545ZM216.761 217.227H217.761V216.485L217.051 216.27L216.761 217.227ZM216.761 238.636L216.438 239.583L217.761 240.035V238.636H216.761ZM212.17 237.682L212.286 236.689L212.17 237.682ZM200.852 239.045L201.343 239.917L201.347 239.915L200.852 239.045ZM196.261 243.682L197.13 244.177L197.134 244.171L196.261 243.682ZM194.58 287V288H195.58V287H194.58ZM170.489 287V217.182H168.489V287H170.489ZM169.489 218.182H193.852V216.182H169.489V218.182ZM192.852 217.182V230.455H194.852V217.182H192.852ZM193.852 231.455H194.58V229.455H193.852V231.455ZM195.548 230.706C196.789 225.918 198.722 222.546 201.261 220.454L199.989 218.91C197.013 221.363 194.916 225.173 193.612 230.204L195.548 230.706ZM201.257 220.457C203.859 218.335 206.892 217.273 210.398 217.273V215.273C206.449 215.273 202.966 216.483 199.993 218.907L201.257 220.457ZM210.398 217.273C211.433 217.273 212.452 217.359 213.456 217.531L213.794 215.56C212.677 215.368 211.544 215.273 210.398 215.273V217.273ZM213.487 217.536C214.529 217.681 215.524 217.897 216.471 218.184L217.051 216.27C215.999 215.951 214.902 215.713 213.763 215.555L213.487 217.536ZM215.761 217.227V238.636H217.761V217.227H215.761ZM217.085 237.69C215.754 237.236 214.15 236.906 212.286 236.689L212.055 238.675C213.828 238.882 215.284 239.188 216.438 239.583L217.085 237.69ZM212.286 236.689C210.444 236.474 208.842 236.364 207.489 236.364V238.364C208.741 238.364 210.261 238.466 212.055 238.675L212.286 236.689ZM207.489 236.364C204.875 236.364 202.49 236.962 200.358 238.176L201.347 239.915C203.154 238.886 205.193 238.364 207.489 238.364V236.364ZM200.362 238.174C198.258 239.358 196.597 241.038 195.389 243.193L197.134 244.171C198.168 242.326 199.568 240.915 201.343 239.917L200.362 238.174ZM195.392 243.187C194.171 245.332 193.58 247.827 193.58 250.636H195.58C195.58 248.112 196.109 245.971 197.13 244.177L195.392 243.187ZM193.58 250.636V287H195.58V250.636H193.58ZM194.58 286H169.489V288H194.58V286Z" fill="#F05006" mask="url(#path-1-outside-1_154_276)"/>
</svg>
